<?xml version="1.0" encoding="UTF-8" standalone="no"?>
<!-- Created with Inkscape (http://www.inkscape.org/) -->

<svg
   xmlns:dc="http://purl.org/dc/elements/1.1/"
   xmlns:cc="http://creativecommons.org/ns#"
   xmlns:rdf="http://www.w3.org/1999/02/22-rdf-syntax-ns#"
   xmlns:svg="http://www.w3.org/2000/svg"
   xmlns="http://www.w3.org/2000/svg"
   xmlns:sodipodi="http://sodipodi.sourceforge.net/DTD/sodipodi-0.dtd"
   xmlns:inkscape="http://www.inkscape.org/namespaces/inkscape"
   width="238.125mm"
   height="171.97917mm"
   viewBox="0 0 238.125 171.97917"
   version="1.1"
   id="svg4635"
   inkscape:version="0.92.4 (5da689c313, 2019-01-14)"
   sodipodi:docname="base.svg">
  <defs
     id="defs4629" />
  <sodipodi:namedview
     id="base"
     pagecolor="#ffffff"
     bordercolor="#666666"
     borderopacity="1.0"
     inkscape:pageopacity="0.0"
     inkscape:pageshadow="2"
     inkscape:zoom="0.98994949"
     inkscape:cx="286.68661"
     inkscape:cy="290.27762"
     inkscape:document-units="mm"
     inkscape:current-layer="layer5"
     showgrid="false"
     fit-margin-top="0"
     fit-margin-left="0"
     fit-margin-right="0"
     fit-margin-bottom="0"
     inkscape:window-width="1920"
     inkscape:window-height="1017"
     inkscape:window-x="-8"
     inkscape:window-y="1072"
     inkscape:window-maximized="1" />
  <metadata
     id="metadata4632">
    <rdf:RDF>
      <cc:Work
         rdf:about="">
        <dc:format>image/svg+xml</dc:format>
        <dc:type
           rdf:resource="http://purl.org/dc/dcmitype/StillImage" />
        <dc:title></dc:title>
      </cc:Work>
    </rdf:RDF>
  </metadata>
  <g
     inkscape:groupmode="layer"
     id="layer5"
     inkscape:label="Layer 2"
     sodipodi:insensitive="true"
     style="display:inline">
    <path
       style="fill:#1fa4b6;fill-opacity:1;stroke:none;stroke-width:1.01015258"
       d="M 0.81344321,324.97315 V 0.71418346 H 450.33133 899.84921 V 324.97315 649.23212 H 450.33133 0.81344321 Z M 499.22861,595.18291 c 6.16374,-0.786 14.38877,-2.13067 18.27786,-2.98815 3.88909,-0.85747 10.40143,-2.26477 14.47186,-3.12732 6.94056,-1.47073 30.32115,-8.77972 37.04592,-11.58089 8.04375,-3.35059 21.61427,-10.10144 22.19513,-11.04128 0.3589,-0.5807 1.42121,-1.05618 2.36069,-1.05661 2.3684,-10e-4 12.13384,-4.96266 22.81864,-11.59353 4.94376,-3.06805 9.27451,-5.57827 9.62386,-5.57827 0.34936,0 2.12569,-1.36134 3.94738,-3.0252 1.82169,-1.66386 4.30949,-3.55852 5.52842,-4.21035 1.21894,-0.65183 7.44379,-5.37612 13.83301,-10.49842 23.27445,-18.65939 50.25758,-50.29657 62.60583,-73.40408 13.64935,-25.5423 24.91664,-52.55959 27.79879,-66.65739 0.37375,-1.82814 1.73774,-7.86957 3.0311,-13.42541 3.93913,-16.92119 4.96564,-27.87146 4.87677,-52.02286 -0.0942,-25.57194 -0.93303,-32.4963 -6.85355,-56.56854 -0.8882,-3.6113 -2.02832,-8.38427 -2.5336,-10.6066 -0.9438,-4.151 -3.38805,-11.57146 -4.99106,-15.15229 -0.49743,-1.11117 -1.9417,-4.975 -3.20947,-8.5863 -2.12162,-6.04348 -10.09773,-23.32143 -13.52334,-29.29442 -0.79659,-1.38896 -2.89127,-5.2528 -4.65485,-8.5863 -1.76357,-3.3335 -6.10296,-10.31252 -9.64305,-15.50892 -3.5401,-5.19641 -6.43656,-9.65688 -6.43656,-9.91214 0,-2.05957 -35.38562,-39.80498 -40.69714,-43.41116 -2.34005,-1.58874 -4.70921,-3.39586 -5.2648,-4.01582 -0.88186,-0.98406 -4.11018,-3.4668 -15.60977,-12.00477 -12.14696,-9.0186 -35.86328,-22.341541 -58.19304,-32.690667 -5.02796,-2.330295 -17.9297,-7.206345 -21.6566,-8.184831 -1.94455,-0.510535 -6.03566,-1.797552 -9.09137,-2.860036 -3.05572,-1.062484 -9.64696,-2.708233 -14.64722,-3.65722 -5.00025,-0.948987 -9.77322,-1.998796 -10.6066,-2.33291 -2.1172,-0.848819 -1.7722,-0.774482 -9.59645,-2.06775 -17.50329,-2.893116 -27.86967,-3.634461 -50.50762,-3.612021 -31.42858,0.03115 -44.19664,1.610491 -76.7716,9.496203 -7.88034,1.907666 -24.87647,8.104683 -27.14827,9.898623 -0.6248,0.493379 -2.95427,1.466545 -5.17661,2.162592 -2.22234,0.696048 -10.40457,4.340707 -18.18275,8.099242 -7.77817,3.758536 -16.69112,7.985461 -19.80655,9.393167 -9.26747,4.187504 -31.20615,18.979268 -31.20615,21.040188 0,0.47919 -0.6114,0.87126 -1.35866,0.87126 -0.74727,0 -2.18143,0.90913 -3.18703,2.0203 -1.00559,1.11117 -2.24472,2.02031 -2.75361,2.02031 -2.70727,0 -23.52828,20.15622 -37.71289,36.50876 -14.54922,16.77288 -22.73085,29.28424 -35.18005,53.79741 -12.24989,24.12069 -21.57408,52.18822 -24.3635,73.33854 -0.403,3.05571 -1.12449,6.30188 -1.6033,7.2137 -0.47881,0.91182 -1.35666,8.98042 -1.95077,17.93021 -1.14231,17.20818 0.13905,48.10669 2.07528,50.04292 0.53827,0.53827 0.97867,2.47524 0.97867,4.30439 0,5.18326 5.12395,29.6507 7.15187,34.15094 1.00143,2.22234 2.82807,7.44988 4.0592,11.61675 3.24507,10.98323 16.87448,40.10298 24.58555,52.52794 6.51736,10.50151 14.5999,21.95118 17.48892,24.77472 1.80565,1.7647 3.283,3.76185 3.283,4.4381 0,1.62355 34.80468,36.45117 39.54853,39.57461 2.02847,1.33558 7.93786,5.65707 13.13198,9.60332 13.23805,10.05766 21.19008,14.92548 36.21291,22.16769 4.16688,2.00877 8.258,4.07548 9.09138,4.59268 2.63355,1.63442 10.26897,5.0358 20.70812,9.22494 19.31194,7.74971 27.4941,10.26136 38.83706,11.92164 4.19648,0.61425 10.13009,1.97698 13.1858,3.02831 5.36224,1.84488 24.82674,4.58129 38.3858,5.39645 11.64773,0.70024 45.44679,-0.42292 56.9785,-1.89345 z"
       id="path5221"
       inkscape:connector-curvature="0"
       transform="scale(0.26458333)" />
    <path
       style="fill:#e05b49;fill-opacity:1;stroke:none;stroke-width:1.01015258"
       d="m 442.25011,596.0662 c -13.40621,-0.80596 -33.002,-3.54307 -38.3858,-5.36165 -3.05571,-1.03219 -9.80165,-2.62104 -14.99099,-3.53078 -5.18932,-0.90973 -11.326,-2.34905 -13.63706,-3.19847 -2.31104,-0.84942 -6.24747,-2.13682 -8.7476,-2.8609 -7.55916,-2.18925 -30.83367,-11.81333 -35.35533,-14.61953 -0.83338,-0.5172 -4.9245,-2.56727 -9.09138,-4.5557 -14.25398,-6.80198 -24.00086,-12.74243 -36.94098,-22.51447 -4.26428,-3.22028 -9.40218,-6.94497 -11.41756,-8.27709 -5.1769,-3.42183 -40.53488,-39.1182 -40.53488,-40.92282 0,-0.8208 -0.83391,-2.08636 -1.85313,-2.81234 -2.93705,-2.09203 -11.01037,-13.21242 -17.80313,-24.52249 -7.7647,-12.92833 -21.74018,-42.9447 -24.70635,-53.064 -1.2214,-4.16687 -2.87984,-9.01578 -3.68542,-10.77534 -1.78866,-3.90678 -7.51036,-30.65091 -7.51036,-35.10457 0,-1.76743 -0.4404,-3.6539 -0.97867,-4.19217 -0.53827,-0.53827 -1.46866,-8.36008 -2.06754,-17.38179 -1.12866,-17.00254 -0.0399,-44.72288 2.00919,-51.15504 0.5457,-1.71296 2.1633,-9.25114 3.59467,-16.75153 5.92287,-31.03575 24.28049,-73.32488 43.19275,-99.50002 2.80997,-3.88909 6.18887,-8.20749 7.50866,-9.59645 1.3198,-1.38896 5.51722,-6.16193 9.32761,-10.6066 13.52619,-15.77776 26.81496,-28.33787 37.41843,-35.36669 2.50013,-1.65729 4.88619,-3.54165 5.30235,-4.18748 2.80664,-4.35549 35.88932,-23.305682 44.07042,-25.244108 1.45755,-0.34535 3.33194,-1.201403 4.16532,-1.902338 2.25015,-1.892564 15.05959,-8.138611 19.69797,-9.604987 2.22234,-0.70257 4.94975,-1.863118 6.06092,-2.578996 2.41565,-1.556309 19.77552,-7.595561 28.28427,-9.839702 26.27486,-6.929867 43.94766,-9.080249 74.75129,-9.095554 23.11647,-0.01149 45.18345,1.735856 54.80077,4.339317 1.80565,0.488799 3.283,0.642423 3.283,0.341387 0,-0.301036 0.56821,-0.08851 1.26269,0.472289 0.69448,0.560795 3.30825,1.336621 5.80837,1.724056 7.0959,1.099624 20.39288,4.441341 23.73859,5.965838 1.66675,0.759467 7.12157,2.77485 12.12183,4.478629 17.67869,6.023805 44.33997,18.877506 60.10408,28.976849 7.99969,5.12504 26.06856,18.19596 27.77919,20.09531 0.55558,0.61688 2.92475,2.42148 5.26479,4.01022 8.73768,5.93229 36.68945,37.30353 47.56933,53.3887 13.76083,20.34447 31.05353,57.42004 35.23673,75.54759 0.83335,3.61129 2.1863,9.2934 3.00655,12.6269 5.77798,23.48185 6.63642,30.6331 6.73002,56.06347 0.10837,29.45281 -1.48517,41.02831 -10.08206,73.23606 -5.23392,19.60854 -20.5882,52.47349 -34.04951,72.881 -14.62357,22.1695 -40.37531,49.29923 -62.44791,65.78955 -7.60255,5.67982 -14.01274,10.32695 -14.24484,10.32695 -0.23211,0 -4.46693,2.51022 -9.41069,5.57826 -10.58211,6.56715 -20.44518,11.59241 -22.75458,11.59354 -0.90424,4.3e-4 -2.1609,0.62353 -2.79257,1.38465 -0.63167,0.76112 -3.98296,2.60264 -7.44729,4.09225 -3.46434,1.48961 -7.08853,3.13998 -8.05375,3.66746 -1.85305,1.01268 -5.87165,2.52 -17.43795,6.54072 -16.43888,5.71453 -19.21195,6.5675 -26.09946,8.02783 -3.97957,0.84377 -10.41755,2.23571 -14.30664,3.09319 -16.81078,3.70649 -54.32553,6.13993 -75.25636,4.88159 z m -71.92315,-141.30603 14.17266,-13.65465 7.86395,5.64213 c 24.7409,17.75077 55.91015,24.93455 87.51627,20.17044 17.49036,-2.63639 35.25473,-9.85491 49.62478,-20.16495 l 7.85767,-5.63762 2.699,1.96207 c 1.48445,1.07914 7.6915,6.9942 13.79345,13.14457 6.10195,6.15037 11.40233,11.1825 11.77863,11.1825 1.55375,0 8.94672,-5.50533 8.94672,-6.66236 0,-0.689 -6.35917,-7.31688 -14.1315,-14.72862 l -14.13151,-13.47589 6.87823,-8.29101 c 15.63175,-18.84249 24.29982,-45.49489 23.08761,-70.98936 -1.29846,-27.30867 -12.25229,-52.12275 -31.44679,-71.23747 -18.48339,-18.40657 -40.27112,-29.33662 -66.97815,-33.60032 l -10.35406,-1.65299 V 235.36227 223.9579 h 27.27412 c 15.00076,0 27.27232,-0.34093 27.27012,-0.75762 -0.002,-0.41669 -8.29807,-2.27453 -18.43529,-4.12854 -10.1372,-1.85402 -23.91734,-4.42587 -30.62253,-5.71522 -12.10515,-2.32774 -12.25496,-2.33161 -21.2132,-0.54778 -4.96207,0.98807 -18.5679,3.52682 -30.23516,5.64163 -11.66726,2.11482 -21.64505,4.21917 -22.17285,4.67632 -0.5278,0.45717 11.63191,0.83121 27.02158,0.83121 h 27.98123 v 11.40437 11.40437 l -10.35407,1.64636 c -41.5859,6.61247 -74.5582,31.60761 -89.7931,68.06902 -5.66089,13.5481 -7.93739,25.19991 -7.9745,40.81601 -0.0645,27.1569 7.89106,49.0719 25.43706,70.0705 l 4.99118,5.97331 -14.43883,13.8964 -14.43884,13.89639 3.48116,3.6401 c 1.91463,2.00204 3.79416,3.64008 4.17673,3.64008 0.38256,0 7.07327,-6.14458 14.86823,-13.65464 z M 310.13914,319.66985 c 1.08418,-1.25006 2.32887,-2.27284 2.76597,-2.27284 0.43712,0 10.74031,-9.51339 22.896,-21.14086 16.04082,-15.34377 22.18292,-21.8535 22.39905,-23.73972 0.34243,-2.9885 -5.09639,-10.00875 -19.58807,-25.28364 -15.41672,-16.24993 -44.46117,-40.44749 -48.54931,-40.44749 -1.01756,0 -33.40305,30.48953 -44.53988,41.93235 -6.77378,6.95989 -7.32355,7.84866 -7.32281,11.83813 8.7e-4,4.73281 3.88474,13.88022 9.24095,21.76462 4.25442,6.26253 18.09204,20.54387 25.10344,25.90839 15.78454,12.07698 32.60383,17.19555 37.59466,11.44106 z m 317.09441,0.72047 c 26.68951,-9.37343 56.41582,-41.15693 56.45075,-60.35736 0.008,-4.17352 -0.30771,-4.56218 -16.41498,-20.23336 -9.03249,-8.78796 -20.66001,-19.89709 -25.83893,-24.68697 l -9.41622,-8.70887 -3.21069,1.73092 c -18.19863,9.81116 -66.1466,57.52014 -65.13343,64.80882 0.2712,1.95109 43.40356,44.45351 45.11235,44.45351 0.35637,0 1.67073,1.02278 2.9208,2.27284 2.75569,2.7557 8.92097,3.04171 15.53035,0.72047 z"
       id="path5234"
       inkscape:connector-curvature="0"
       transform="scale(0.26458333)" />
    <path
       style="fill:#e05b49;fill-opacity:1;stroke:none;stroke-width:1.01015258"
       d="m 427.09782,594.24434 c -11.44272,-1.47746 -14.35538,-2.01908 -32.82996,-6.10488 -26.11794,-5.7762 -43.74287,-12.3653 -73.23606,-27.37939 -25.16148,-12.80895 -43.81389,-26.16915 -63.91772,-45.7825 -28.93215,-28.22626 -41.83647,-46.35527 -58.22208,-81.79498 -8.10305,-17.52572 -14.59465,-36.60644 -17.68438,-51.97961 -6.2519,-31.1067 -6.14506,-30.1134 -6.10221,-56.73491 0.0396,-24.61043 0.12406,-25.63984 3.31435,-40.4061 4.56249,-21.11752 7.71944,-32.40786 12.9929,-46.46701 6.34832,-16.92477 19.05694,-42.47183 27.3868,-55.05332 12.44004,-18.78956 40.68687,-49.52791 54.82572,-59.66165 3.44016,-2.46567 8.44722,-6.32324 11.12678,-8.57238 6.17716,-5.18494 23.24953,-15.37773 33.75446,-20.152589 4.44467,-2.020259 11.94505,-5.654068 16.66752,-8.07513 19.56078,-10.028215 45.62672,-19.156592 67.68022,-23.701834 18.26597,-3.76463 28.16162,-4.553967 57.07362,-4.552533 30.45471,0.0015 42.65996,1.038355 60.10407,5.105885 5.83363,1.360257 13.78858,3.219948 17.67767,4.132646 15.74075,3.694069 49.08342,17.463785 69.70053,28.784628 21.75725,11.946897 46.59101,30.696237 61.75969,46.628187 22.08751,23.19892 35.02061,41.04694 47.18054,65.11039 13.87677,27.46091 18.20114,39.30358 24.31851,66.5983 4.83579,21.57649 5.98689,34.58352 5.29917,59.87896 -0.70779,26.03394 -4.18864,46.6077 -11.96345,70.71068 -5.04766,15.64844 -17.71129,42.78012 -27.58191,59.09393 -19.07817,31.53173 -54.96883,67.21026 -87.37991,86.86348 -10.1018,6.12546 -21.27867,11.93231 -25.2697,13.12866 -1.38896,0.41634 -3.22335,1.36727 -4.07641,2.11316 -2.79896,2.44731 -20.27732,9.70044 -36.67475,15.21921 -16.85967,5.67434 -37.9709,10.53121 -54.20318,12.47004 -15.29856,1.8273 -59.30641,2.1836 -71.72083,0.58066 z M 365.3494,460.10393 c 4.79347,-4.57098 11.07727,-10.55417 13.96399,-13.29597 l 5.24858,-4.9851 7.62085,5.26829 c 14.85101,10.2665 30.98344,16.8994 48.55206,19.96233 13.81841,2.40912 37.1855,1.42979 50.50762,-2.11679 11.97512,-3.188 27.9128,-10.56082 38.19597,-17.66956 4.07053,-2.81395 7.7176,-5.11628 8.10459,-5.11628 0.38699,0 6.70644,5.6821 14.04321,12.6269 7.33678,6.9448 13.81528,12.62691 14.39668,12.62691 1.76163,0 8.59714,-5.03833 8.59714,-6.3368 0,-0.66725 -6.20522,-7.43031 -13.78937,-15.02901 l -13.78937,-13.81581 4.53516,-5.39016 c 10.36711,-12.32159 17.44239,-25.97197 21.79686,-42.05283 2.38505,-8.80786 2.65233,-11.54972 2.62971,-26.97694 -0.0223,-15.23017 -0.32011,-18.27165 -2.63261,-26.88913 -11.3886,-42.43946 -46.9652,-74.15104 -92.18949,-82.17409 -5.00026,-0.88708 -10.11415,-1.83433 -11.36422,-2.105 -2.18916,-0.47401 -2.27284,-0.90055 -2.27284,-11.58456 V 223.9579 h 27.47615 c 17.09371,0 27.11352,-0.35764 26.5165,-0.94645 -1.05708,-1.04253 -11.10858,-3.1695 -40.86067,-8.64639 l -19.69797,-3.62609 -17.86786,3.27127 c -9.82733,1.79919 -17.61171,3.68573 -17.29863,4.1923 0.31418,0.50837 -0.32419,0.63748 -1.42481,0.28816 -2.29529,-0.7285 -23.53716,3.12433 -24.9775,4.53039 -0.59024,0.57619 9.81149,0.93681 27.02158,0.93681 h 27.98123 v 11.09243 c 0,10.68401 -0.0836,11.11055 -2.27285,11.58456 -1.25006,0.27067 -6.36396,1.21792 -11.36421,2.105 -44.8087,7.94932 -80.19017,39.34376 -91.60688,81.28402 -2.05969,7.56645 -2.33731,10.86596 -2.33731,27.7792 0,16.93611 0.27562,20.20251 2.34401,27.77919 4.07868,14.94055 12.10623,29.99812 22.82482,42.81331 l 4.12559,4.93257 -14.46827,13.85782 -14.46828,13.85781 3.47587,3.6855 c 1.91173,2.02702 4.04595,3.6855 4.74272,3.6855 0.69676,0 5.18878,-3.7399 9.98225,-8.31088 z M 320.05131,311.48188 c 22.21486,-20.05555 38.35613,-36.63776 38.35613,-39.40391 0,-6.88 -36.77361,-44.13634 -59.74198,-60.52623 -3.67377,-2.62154 -7.37952,-4.76644 -8.23502,-4.76644 -1.73752,0 -25.91627,22.30528 -42.00365,38.74903 l -10.48063,10.7128 0.46262,5.57857 c 0.31318,3.77655 1.72881,8.10582 4.38243,13.40234 3.29795,6.58255 6.08923,9.98941 17.59416,21.47424 7.94129,7.92744 16.08741,15.05956 19.42994,17.01139 9.45162,5.51913 16.92736,8.17871 23.0634,8.20504 l 5.5855,0.0239 11.5871,-10.46081 z m 315.29894,5.65189 c 10.78341,-5.4008 19.66658,-12.15692 29.4541,-22.4014 12.49827,-13.0818 18.87221,-24.5822 18.87221,-34.05081 0,-4.52744 -0.28704,-4.96519 -9.34391,-14.25002 -5.13915,-5.2685 -16.74053,-16.57937 -25.78083,-25.13527 l -16.43693,-15.55618 -4.06544,2.29037 c -11.22452,6.32363 -44.99881,37.45392 -57.61309,53.10288 -9.41244,11.67683 -10.20429,9.55515 11.83618,31.71387 10.49212,10.54842 22.03129,21.45159 25.64258,24.22928 6.48248,4.9861 6.64514,5.04541 12.78792,4.66369 4.78794,-0.29754 8.16373,-1.35919 14.64721,-4.60641 z"
       id="path5236"
       inkscape:connector-curvature="0"
       transform="scale(0.26458333)" />
    <ellipse
       style="fill:#e05b49;fill-opacity:1;stroke-width:0.2767027"
       id="path5238"
       ry="71.8955"
       rx="76.572723"
       cy="86.452919"
       cx="121.74127" />
  </g>
</svg>
