<?xml version="1.0" encoding="UTF-8" standalone="no"?>
<!-- Created with Inkscape (http://www.inkscape.org/) -->

<svg
   xmlns:dc="http://purl.org/dc/elements/1.1/"
   xmlns:cc="http://creativecommons.org/ns#"
   xmlns:rdf="http://www.w3.org/1999/02/22-rdf-syntax-ns#"
   xmlns:svg="http://www.w3.org/2000/svg"
   xmlns="http://www.w3.org/2000/svg"
   xmlns:sodipodi="http://sodipodi.sourceforge.net/DTD/sodipodi-0.dtd"
   xmlns:inkscape="http://www.inkscape.org/namespaces/inkscape"
   width="238.125mm"
   height="171.97917mm"
   viewBox="0 0 238.125 171.97917"
   version="1.1"
   id="svg4635"
   inkscape:version="0.92.4 (5da689c313, 2019-01-14)"
   sodipodi:docname="basecopygreen.svg">
  <defs
     id="defs4629" />
  <sodipodi:namedview
     id="base"
     pagecolor="#ffffff"
     bordercolor="#666666"
     borderopacity="1.0"
     inkscape:pageopacity="0.0"
     inkscape:pageshadow="2"
     inkscape:zoom="0.7"
     inkscape:cx="727.91702"
     inkscape:cy="190.73692"
     inkscape:document-units="mm"
     inkscape:current-layer="layer1"
     showgrid="false"
     fit-margin-top="0"
     fit-margin-left="0"
     fit-margin-right="0"
     fit-margin-bottom="0"
     inkscape:window-width="1920"
     inkscape:window-height="1017"
     inkscape:window-x="-8"
     inkscape:window-y="1072"
     inkscape:window-maximized="1" />
  <metadata
     id="metadata4632">
    <rdf:RDF>
      <cc:Work
         rdf:about="">
        <dc:format>image/svg+xml</dc:format>
        <dc:type
           rdf:resource="http://purl.org/dc/dcmitype/StillImage" />
        <dc:title></dc:title>
      </cc:Work>
    </rdf:RDF>
  </metadata>
  <g
     inkscape:groupmode="layer"
     id="layer5"
     inkscape:label="Layer 2"
     sodipodi:insensitive="true"
     style="display:inline">
    <path
       style="fill:#1fa4b6;fill-opacity:1;stroke:none;stroke-width:1.01015258"
       d="M 0.81344321,324.97315 V 0.71418346 H 450.33133 899.84921 V 324.97315 649.23212 H 450.33133 0.81344321 Z M 499.22861,595.18291 c 6.16374,-0.786 14.38877,-2.13067 18.27786,-2.98815 3.88909,-0.85747 10.40143,-2.26477 14.47186,-3.12732 6.94056,-1.47073 30.32115,-8.77972 37.04592,-11.58089 8.04375,-3.35059 21.61427,-10.10144 22.19513,-11.04128 0.3589,-0.5807 1.42121,-1.05618 2.36069,-1.05661 2.3684,-10e-4 12.13384,-4.96266 22.81864,-11.59353 4.94376,-3.06805 9.27451,-5.57827 9.62386,-5.57827 0.34936,0 2.12569,-1.36134 3.94738,-3.0252 1.82169,-1.66386 4.30949,-3.55852 5.52842,-4.21035 1.21894,-0.65183 7.44379,-5.37612 13.83301,-10.49842 23.27445,-18.65939 50.25758,-50.29657 62.60583,-73.40408 13.64935,-25.5423 24.91664,-52.55959 27.79879,-66.65739 0.37375,-1.82814 1.73774,-7.86957 3.0311,-13.42541 3.93913,-16.92119 4.96564,-27.87146 4.87677,-52.02286 -0.0942,-25.57194 -0.93303,-32.4963 -6.85355,-56.56854 -0.8882,-3.6113 -2.02832,-8.38427 -2.5336,-10.6066 -0.9438,-4.151 -3.38805,-11.57146 -4.99106,-15.15229 -0.49743,-1.11117 -1.9417,-4.975 -3.20947,-8.5863 -2.12162,-6.04348 -10.09773,-23.32143 -13.52334,-29.29442 -0.79659,-1.38896 -2.89127,-5.2528 -4.65485,-8.5863 -1.76357,-3.3335 -6.10296,-10.31252 -9.64305,-15.50892 -3.5401,-5.19641 -6.43656,-9.65688 -6.43656,-9.91214 0,-2.05957 -35.38562,-39.80498 -40.69714,-43.41116 -2.34005,-1.58874 -4.70921,-3.39586 -5.2648,-4.01582 -0.88186,-0.98406 -4.11018,-3.4668 -15.60977,-12.00477 -12.14696,-9.0186 -35.86328,-22.341541 -58.19304,-32.690667 -5.02796,-2.330295 -17.9297,-7.206345 -21.6566,-8.184831 -1.94455,-0.510535 -6.03566,-1.797552 -9.09137,-2.860036 -3.05572,-1.062484 -9.64696,-2.708233 -14.64722,-3.65722 -5.00025,-0.948987 -9.77322,-1.998796 -10.6066,-2.33291 -2.1172,-0.848819 -1.7722,-0.774482 -9.59645,-2.06775 -17.50329,-2.893116 -27.86967,-3.634461 -50.50762,-3.612021 -31.42858,0.03115 -44.19664,1.610491 -76.7716,9.496203 -7.88034,1.907666 -24.87647,8.104683 -27.14827,9.898623 -0.6248,0.493379 -2.95427,1.466545 -5.17661,2.162592 -2.22234,0.696048 -10.40457,4.340707 -18.18275,8.099242 -7.77817,3.758536 -16.69112,7.985461 -19.80655,9.393167 -9.26747,4.187504 -31.20615,18.979268 -31.20615,21.040188 0,0.47919 -0.6114,0.87126 -1.35866,0.87126 -0.74727,0 -2.18143,0.90913 -3.18703,2.0203 -1.00559,1.11117 -2.24472,2.02031 -2.75361,2.02031 -2.70727,0 -23.52828,20.15622 -37.71289,36.50876 -14.54922,16.77288 -22.73085,29.28424 -35.18005,53.79741 -12.24989,24.12069 -21.57408,52.18822 -24.3635,73.33854 -0.403,3.05571 -1.12449,6.30188 -1.6033,7.2137 -0.47881,0.91182 -1.35666,8.98042 -1.95077,17.93021 -1.14231,17.20818 0.13905,48.10669 2.07528,50.04292 0.53827,0.53827 0.97867,2.47524 0.97867,4.30439 0,5.18326 5.12395,29.6507 7.15187,34.15094 1.00143,2.22234 2.82807,7.44988 4.0592,11.61675 3.24507,10.98323 16.87448,40.10298 24.58555,52.52794 6.51736,10.50151 14.5999,21.95118 17.48892,24.77472 1.80565,1.7647 3.283,3.76185 3.283,4.4381 0,1.62355 34.80468,36.45117 39.54853,39.57461 2.02847,1.33558 7.93786,5.65707 13.13198,9.60332 13.23805,10.05766 21.19008,14.92548 36.21291,22.16769 4.16688,2.00877 8.258,4.07548 9.09138,4.59268 2.63355,1.63442 10.26897,5.0358 20.70812,9.22494 19.31194,7.74971 27.4941,10.26136 38.83706,11.92164 4.19648,0.61425 10.13009,1.97698 13.1858,3.02831 5.36224,1.84488 24.82674,4.58129 38.3858,5.39645 11.64773,0.70024 45.44679,-0.42292 56.9785,-1.89345 z"
       id="path5221"
       inkscape:connector-curvature="0"
       transform="scale(0.26458333)" />
    <path
       style="fill:#e05b49;fill-opacity:1;stroke:none;stroke-width:1.01015258"
       d="m 442.25011,596.0662 c -13.40621,-0.80596 -33.002,-3.54307 -38.3858,-5.36165 -3.05571,-1.03219 -9.80165,-2.62104 -14.99099,-3.53078 -5.18932,-0.90973 -11.326,-2.34905 -13.63706,-3.19847 -2.31104,-0.84942 -6.24747,-2.13682 -8.7476,-2.8609 -7.55916,-2.18925 -30.83367,-11.81333 -35.35533,-14.61953 -0.83338,-0.5172 -4.9245,-2.56727 -9.09138,-4.5557 -14.25398,-6.80198 -24.00086,-12.74243 -36.94098,-22.51447 -4.26428,-3.22028 -9.40218,-6.94497 -11.41756,-8.27709 -5.1769,-3.42183 -40.53488,-39.1182 -40.53488,-40.92282 0,-0.8208 -0.83391,-2.08636 -1.85313,-2.81234 -2.93705,-2.09203 -11.01037,-13.21242 -17.80313,-24.52249 -7.7647,-12.92833 -21.74018,-42.9447 -24.70635,-53.064 -1.2214,-4.16687 -2.87984,-9.01578 -3.68542,-10.77534 -1.78866,-3.90678 -7.51036,-30.65091 -7.51036,-35.10457 0,-1.76743 -0.4404,-3.6539 -0.97867,-4.19217 -0.53827,-0.53827 -1.46866,-8.36008 -2.06754,-17.38179 -1.12866,-17.00254 -0.0399,-44.72288 2.00919,-51.15504 0.5457,-1.71296 2.1633,-9.25114 3.59467,-16.75153 5.92287,-31.03575 24.28049,-73.32488 43.19275,-99.50002 2.80997,-3.88909 6.18887,-8.20749 7.50866,-9.59645 1.3198,-1.38896 5.51722,-6.16193 9.32761,-10.6066 13.52619,-15.77776 26.81496,-28.33787 37.41843,-35.36669 2.50013,-1.65729 4.88619,-3.54165 5.30235,-4.18748 2.80664,-4.35549 35.88932,-23.305682 44.07042,-25.244108 1.45755,-0.34535 3.33194,-1.201403 4.16532,-1.902338 2.25015,-1.892564 15.05959,-8.138611 19.69797,-9.604987 2.22234,-0.70257 4.94975,-1.863118 6.06092,-2.578996 2.41565,-1.556309 19.77552,-7.595561 28.28427,-9.839702 26.27486,-6.929867 43.94766,-9.080249 74.75129,-9.095554 23.11647,-0.01149 45.18345,1.735856 54.80077,4.339317 1.80565,0.488799 3.283,0.642423 3.283,0.341387 0,-0.301036 0.56821,-0.08851 1.26269,0.472289 0.69448,0.560795 3.30825,1.336621 5.80837,1.724056 7.0959,1.099624 20.39288,4.441341 23.73859,5.965838 1.66675,0.759467 7.12157,2.77485 12.12183,4.478629 17.67869,6.023805 44.33997,18.877506 60.10408,28.976849 7.99969,5.12504 26.06856,18.19596 27.77919,20.09531 0.55558,0.61688 2.92475,2.42148 5.26479,4.01022 8.73768,5.93229 36.68945,37.30353 47.56933,53.3887 13.76083,20.34447 31.05353,57.42004 35.23673,75.54759 0.83335,3.61129 2.1863,9.2934 3.00655,12.6269 5.77798,23.48185 6.63642,30.6331 6.73002,56.06347 0.10837,29.45281 -1.48517,41.02831 -10.08206,73.23606 -5.23392,19.60854 -20.5882,52.47349 -34.04951,72.881 -14.62357,22.1695 -40.37531,49.29923 -62.44791,65.78955 -7.60255,5.67982 -14.01274,10.32695 -14.24484,10.32695 -0.23211,0 -4.46693,2.51022 -9.41069,5.57826 -10.58211,6.56715 -20.44518,11.59241 -22.75458,11.59354 -0.90424,4.3e-4 -2.1609,0.62353 -2.79257,1.38465 -0.63167,0.76112 -3.98296,2.60264 -7.44729,4.09225 -3.46434,1.48961 -7.08853,3.13998 -8.05375,3.66746 -1.85305,1.01268 -5.87165,2.52 -17.43795,6.54072 -16.43888,5.71453 -19.21195,6.5675 -26.09946,8.02783 -3.97957,0.84377 -10.41755,2.23571 -14.30664,3.09319 -16.81078,3.70649 -54.32553,6.13993 -75.25636,4.88159 z m -71.92315,-141.30603 14.17266,-13.65465 7.86395,5.64213 c 24.7409,17.75077 55.91015,24.93455 87.51627,20.17044 17.49036,-2.63639 35.25473,-9.85491 49.62478,-20.16495 l 7.85767,-5.63762 2.699,1.96207 c 1.48445,1.07914 7.6915,6.9942 13.79345,13.14457 6.10195,6.15037 11.40233,11.1825 11.77863,11.1825 1.55375,0 8.94672,-5.50533 8.94672,-6.66236 0,-0.689 -6.35917,-7.31688 -14.1315,-14.72862 l -14.13151,-13.47589 6.87823,-8.29101 c 15.63175,-18.84249 24.29982,-45.49489 23.08761,-70.98936 -1.29846,-27.30867 -12.25229,-52.12275 -31.44679,-71.23747 -18.48339,-18.40657 -40.27112,-29.33662 -66.97815,-33.60032 l -10.35406,-1.65299 V 235.36227 223.9579 h 27.27412 c 15.00076,0 27.27232,-0.34093 27.27012,-0.75762 -0.002,-0.41669 -8.29807,-2.27453 -18.43529,-4.12854 -10.1372,-1.85402 -23.91734,-4.42587 -30.62253,-5.71522 -12.10515,-2.32774 -12.25496,-2.33161 -21.2132,-0.54778 -4.96207,0.98807 -18.5679,3.52682 -30.23516,5.64163 -11.66726,2.11482 -21.64505,4.21917 -22.17285,4.67632 -0.5278,0.45717 11.63191,0.83121 27.02158,0.83121 h 27.98123 v 11.40437 11.40437 l -10.35407,1.64636 c -41.5859,6.61247 -74.5582,31.60761 -89.7931,68.06902 -5.66089,13.5481 -7.93739,25.19991 -7.9745,40.81601 -0.0645,27.1569 7.89106,49.0719 25.43706,70.0705 l 4.99118,5.97331 -14.43883,13.8964 -14.43884,13.89639 3.48116,3.6401 c 1.91463,2.00204 3.79416,3.64008 4.17673,3.64008 0.38256,0 7.07327,-6.14458 14.86823,-13.65464 z M 310.13914,319.66985 c 1.08418,-1.25006 2.32887,-2.27284 2.76597,-2.27284 0.43712,0 10.74031,-9.51339 22.896,-21.14086 16.04082,-15.34377 22.18292,-21.8535 22.39905,-23.73972 0.34243,-2.9885 -5.09639,-10.00875 -19.58807,-25.28364 -15.41672,-16.24993 -44.46117,-40.44749 -48.54931,-40.44749 -1.01756,0 -33.40305,30.48953 -44.53988,41.93235 -6.77378,6.95989 -7.32355,7.84866 -7.32281,11.83813 8.7e-4,4.73281 3.88474,13.88022 9.24095,21.76462 4.25442,6.26253 18.09204,20.54387 25.10344,25.90839 15.78454,12.07698 32.60383,17.19555 37.59466,11.44106 z m 317.09441,0.72047 c 26.68951,-9.37343 56.41582,-41.15693 56.45075,-60.35736 0.008,-4.17352 -0.30771,-4.56218 -16.41498,-20.23336 -9.03249,-8.78796 -20.66001,-19.89709 -25.83893,-24.68697 l -9.41622,-8.70887 -3.21069,1.73092 c -18.19863,9.81116 -66.1466,57.52014 -65.13343,64.80882 0.2712,1.95109 43.40356,44.45351 45.11235,44.45351 0.35637,0 1.67073,1.02278 2.9208,2.27284 2.75569,2.7557 8.92097,3.04171 15.53035,0.72047 z"
       id="path5234"
       inkscape:connector-curvature="0"
       transform="scale(0.26458333)" />
    <path
       style="fill:#e05b49;fill-opacity:1;stroke:none;stroke-width:1.01015258"
       d="m 427.09782,594.24434 c -11.44272,-1.47746 -14.35538,-2.01908 -32.82996,-6.10488 -26.11794,-5.7762 -43.74287,-12.3653 -73.23606,-27.37939 -25.16148,-12.80895 -43.81389,-26.16915 -63.91772,-45.7825 -28.93215,-28.22626 -41.83647,-46.35527 -58.22208,-81.79498 -8.10305,-17.52572 -14.59465,-36.60644 -17.68438,-51.97961 -6.2519,-31.1067 -6.14506,-30.1134 -6.10221,-56.73491 0.0396,-24.61043 0.12406,-25.63984 3.31435,-40.4061 4.56249,-21.11752 7.71944,-32.40786 12.9929,-46.46701 6.34832,-16.92477 19.05694,-42.47183 27.3868,-55.05332 12.44004,-18.78956 40.68687,-49.52791 54.82572,-59.66165 3.44016,-2.46567 8.44722,-6.32324 11.12678,-8.57238 6.17716,-5.18494 23.24953,-15.37773 33.75446,-20.152589 4.44467,-2.020259 11.94505,-5.654068 16.66752,-8.07513 19.56078,-10.028215 45.62672,-19.156592 67.68022,-23.701834 18.26597,-3.76463 28.16162,-4.553967 57.07362,-4.552533 30.45471,0.0015 42.65996,1.038355 60.10407,5.105885 5.83363,1.360257 13.78858,3.219948 17.67767,4.132646 15.74075,3.694069 49.08342,17.463785 69.70053,28.784628 21.75725,11.946897 46.59101,30.696237 61.75969,46.628187 22.08751,23.19892 35.02061,41.04694 47.18054,65.11039 13.87677,27.46091 18.20114,39.30358 24.31851,66.5983 4.83579,21.57649 5.98689,34.58352 5.29917,59.87896 -0.70779,26.03394 -4.18864,46.6077 -11.96345,70.71068 -5.04766,15.64844 -17.71129,42.78012 -27.58191,59.09393 -19.07817,31.53173 -54.96883,67.21026 -87.37991,86.86348 -10.1018,6.12546 -21.27867,11.93231 -25.2697,13.12866 -1.38896,0.41634 -3.22335,1.36727 -4.07641,2.11316 -2.79896,2.44731 -20.27732,9.70044 -36.67475,15.21921 -16.85967,5.67434 -37.9709,10.53121 -54.20318,12.47004 -15.29856,1.8273 -59.30641,2.1836 -71.72083,0.58066 z M 365.3494,460.10393 c 4.79347,-4.57098 11.07727,-10.55417 13.96399,-13.29597 l 5.24858,-4.9851 7.62085,5.26829 c 14.85101,10.2665 30.98344,16.8994 48.55206,19.96233 13.81841,2.40912 37.1855,1.42979 50.50762,-2.11679 11.97512,-3.188 27.9128,-10.56082 38.19597,-17.66956 4.07053,-2.81395 7.7176,-5.11628 8.10459,-5.11628 0.38699,0 6.70644,5.6821 14.04321,12.6269 7.33678,6.9448 13.81528,12.62691 14.39668,12.62691 1.76163,0 8.59714,-5.03833 8.59714,-6.3368 0,-0.66725 -6.20522,-7.43031 -13.78937,-15.02901 l -13.78937,-13.81581 4.53516,-5.39016 c 10.36711,-12.32159 17.44239,-25.97197 21.79686,-42.05283 2.38505,-8.80786 2.65233,-11.54972 2.62971,-26.97694 -0.0223,-15.23017 -0.32011,-18.27165 -2.63261,-26.88913 -11.3886,-42.43946 -46.9652,-74.15104 -92.18949,-82.17409 -5.00026,-0.88708 -10.11415,-1.83433 -11.36422,-2.105 -2.18916,-0.47401 -2.27284,-0.90055 -2.27284,-11.58456 V 223.9579 h 27.47615 c 17.09371,0 27.11352,-0.35764 26.5165,-0.94645 -1.05708,-1.04253 -11.10858,-3.1695 -40.86067,-8.64639 l -19.69797,-3.62609 -17.86786,3.27127 c -9.82733,1.79919 -17.61171,3.68573 -17.29863,4.1923 0.31418,0.50837 -0.32419,0.63748 -1.42481,0.28816 -2.29529,-0.7285 -23.53716,3.12433 -24.9775,4.53039 -0.59024,0.57619 9.81149,0.93681 27.02158,0.93681 h 27.98123 v 11.09243 c 0,10.68401 -0.0836,11.11055 -2.27285,11.58456 -1.25006,0.27067 -6.36396,1.21792 -11.36421,2.105 -44.8087,7.94932 -80.19017,39.34376 -91.60688,81.28402 -2.05969,7.56645 -2.33731,10.86596 -2.33731,27.7792 0,16.93611 0.27562,20.20251 2.34401,27.77919 4.07868,14.94055 12.10623,29.99812 22.82482,42.81331 l 4.12559,4.93257 -14.46827,13.85782 -14.46828,13.85781 3.47587,3.6855 c 1.91173,2.02702 4.04595,3.6855 4.74272,3.6855 0.69676,0 5.18878,-3.7399 9.98225,-8.31088 z M 320.05131,311.48188 c 22.21486,-20.05555 38.35613,-36.63776 38.35613,-39.40391 0,-6.88 -36.77361,-44.13634 -59.74198,-60.52623 -3.67377,-2.62154 -7.37952,-4.76644 -8.23502,-4.76644 -1.73752,0 -25.91627,22.30528 -42.00365,38.74903 l -10.48063,10.7128 0.46262,5.57857 c 0.31318,3.77655 1.72881,8.10582 4.38243,13.40234 3.29795,6.58255 6.08923,9.98941 17.59416,21.47424 7.94129,7.92744 16.08741,15.05956 19.42994,17.01139 9.45162,5.51913 16.92736,8.17871 23.0634,8.20504 l 5.5855,0.0239 11.5871,-10.46081 z m 315.29894,5.65189 c 10.78341,-5.4008 19.66658,-12.15692 29.4541,-22.4014 12.49827,-13.0818 18.87221,-24.5822 18.87221,-34.05081 0,-4.52744 -0.28704,-4.96519 -9.34391,-14.25002 -5.13915,-5.2685 -16.74053,-16.57937 -25.78083,-25.13527 l -16.43693,-15.55618 -4.06544,2.29037 c -11.22452,6.32363 -44.99881,37.45392 -57.61309,53.10288 -9.41244,11.67683 -10.20429,9.55515 11.83618,31.71387 10.49212,10.54842 22.03129,21.45159 25.64258,24.22928 6.48248,4.9861 6.64514,5.04541 12.78792,4.66369 4.78794,-0.29754 8.16373,-1.35919 14.64721,-4.60641 z"
       id="path5236"
       inkscape:connector-curvature="0"
       transform="scale(0.26458333)" />
    <ellipse
       style="fill:#e05b49;fill-opacity:1;stroke-width:0.2767027"
       id="path5238"
       ry="71.8955"
       rx="76.572723"
       cy="86.452919"
       cx="121.74127" />
  </g>
  <g
     inkscape:groupmode="layer"
     id="layer1"
     inkscape:label="Layer 3">
    <path
       style="fill:#79de96;fill-opacity:1;stroke:#79de96;stroke-width:2.86164212;stroke-miterlimit:4;stroke-dasharray:none;stroke-opacity:1"
       d="M 2.3559982,325.22397 V 2.3668276 H 450.92743 899.49886 V 325.22397 648.08112 H 450.92743 2.3559982 Z M 525.36766,592.79552 c 90.10274,-20.12101 170.48591,-84.25941 203.20863,-162.14183 26.0554,-62.01372 28.637,-123.83752 7.7888,-186.52477 C 706.17089,153.33977 631.401,87.555719 529.04146,61.721459 c -21.19415,-5.34914 -32.61035,-6.33746 -70.97117,-6.144106 -39.59775,0.199586 -49.42466,1.216338 -73.44518,7.59906 -107.01148,28.435063 -188.2999,110.255717 -209.45576,210.827157 -2.33306,11.09097 -4.24192,34.783 -4.24192,52.64897 0,17.86597 1.90886,41.558 4.24192,52.64897 22.85285,108.63869 114.09345,193.55275 231.91599,215.83521 27.183,5.1408 90.37903,3.88994 118.28232,-2.3412 z"
       id="path854"
       inkscape:connector-curvature="0"
       transform="scale(0.26458333)" />
    <path
       style="fill:#8cfffb;fill-opacity:1;stroke:#e05b49;stroke-width:2.86164212;stroke-miterlimit:4;stroke-dasharray:none;stroke-opacity:1"
       d="m 426.64171,596.5622 c -4.71428,-1.56306 -11.46428,-2.15768 -15,-1.32137 -3.78558,0.89543 -6.42857,0.18657 -6.42857,-1.72423 0,-1.8376 -2.47691,-2.59708 -5.71144,-1.75123 -3.14129,0.82146 -6.48563,0.24086 -7.43186,-1.29011 -0.94623,-1.53106 -3.47776,-2.10934 -5.62563,-1.28514 -2.14786,0.82422 -4.71929,0.18142 -5.71429,-1.42858 -0.99498,-1.60991 -3.60759,-2.23697 -5.80578,-1.39345 -2.19819,0.84354 -3.99671,0.23197 -3.99671,-1.35903 0,-1.591 -1.60715,-2.5666 -3.57143,-2.16803 -1.96429,0.39857 -6.46429,-0.87603 -10,-2.83243 -3.53572,-1.9564 -6.42857,-2.83937 -6.42857,-1.96214 0,0.87723 -2.99549,-0.36777 -6.65665,-2.76663 -3.66115,-2.39889 -7.5183,-3.49997 -8.57143,-2.44683 -1.05313,1.05311 -1.91478,0.33891 -1.91478,-1.58717 0,-1.92609 -1.18206,-2.7714 -2.6268,-1.87852 -1.44474,0.89292 -4.50597,-0.25571 -6.80272,-2.55245 -2.29676,-2.29675 -4.97184,-3.38 -5.94463,-2.4072 -0.97279,0.97277 -1.76871,0.19283 -1.76871,-1.73326 0,-1.92609 -1.28571,-2.70734 -2.85714,-1.73614 -1.57143,0.9712 -2.85714,0.42871 -2.85714,-1.20552 0,-1.63423 -3.21429,-3.77805 -7.14286,-4.76408 -3.92857,-0.986 -7.14286,-2.93906 -7.14286,-4.34015 0,-1.40105 -1.79101,-2.5474 -3.98003,-2.5474 -2.18902,0 -4.72009,-1.92857 -5.62461,-4.28571 -0.90453,-2.35714 -2.97065,-4.28571 -4.5914,-4.28571 -3.37333,0 -5.9303,-2.17675 -31.84617,-27.11058 -10.39464,-10.00077 -19.67572,-20.2064 -20.62461,-22.67917 -0.94889,-2.4728 -3.05133,-4.49597 -4.67208,-4.49597 -1.62075,0 -2.94681,-1.96891 -2.94681,-4.37537 0,-2.40649 -1.92857,-5.11546 -4.28572,-6.01997 -2.35714,-0.90454 -4.28571,-3.4356 -4.28571,-5.62463 0,-2.189 -1.36159,-3.98003 -3.02576,-3.98003 -1.66417,0 -2.35149,-1.091 -1.52737,-2.42446 0.82411,-1.33342 -0.95116,-5.05371 -3.94505,-8.26728 -2.99389,-3.21354 -4.66371,-6.62254 -3.71072,-7.57554 0.95299,-0.953 0.15683,-1.73272 -1.76924,-1.73272 -1.92608,0 -2.70734,-1.28571 -1.73615,-2.85714 0.9712,-1.57143 0.40422,-2.85714 -1.25995,-2.85714 -1.66417,0 -2.81485,-0.96429 -2.55708,-2.14286 0.96533,-4.41363 -4.04955,-17.85714 -6.66132,-17.85714 -1.49382,0 -1.97632,-1.19689 -1.07223,-2.65972 0.90409,-1.46286 0.31614,-3.48026 -1.30656,-4.48314 -1.62269,-1.00289 -2.26555,-2.93146 -1.42857,-4.28572 0.83698,-1.35425 0.27125,-3.23517 -1.25718,-4.1798 -1.52843,-0.9446 -2.10461,-3.47482 -1.2804,-5.62268 0.82422,-2.14789 0.10423,-4.76697 -1.59996,-5.82023 -1.70419,-1.05323 -2.35882,-3.11186 -1.45473,-4.57471 0.90409,-1.46283 0.71848,-4.15692 -0.41246,-5.9868 -3.45797,-5.59512 -4.61573,-19.45198 -4.61573,-55.24435 0,-34.27266 1.10344,-47.37799 4.71749,-56.02885 1.05702,-2.53016 2.40759,-8.31587 3.00127,-12.85714 0.59368,-4.54128 1.32026,-8.89972 1.61462,-9.68544 0.29436,-0.78571 0.38294,-2.39285 0.19685,-3.57142 -0.18609,-1.17858 1.08493,-2.14286 2.82448,-2.14286 1.73956,0 2.45464,-1.84551 1.58908,-4.10112 -0.86556,-2.25562 -0.30313,-4.52466 1.24984,-5.04232 1.55297,-0.51766 3.04007,-3.81501 3.30465,-7.32745 0.26458,-3.51244 1.56905,-6.38625 2.89881,-6.38625 1.32976,0 1.62314,-1.28572 0.65194,-2.85715 -0.9712,-1.57143 -0.32834,-2.85714 1.42857,-2.85714 1.75691,0 2.39977,-1.28571 1.42857,-2.85714 -0.97119,-1.57143 -0.32834,-2.85715 1.42858,-2.85715 1.75691,0 2.39976,-1.28571 1.42857,-2.85714 -0.9712,-1.57143 -0.40422,-2.85714 1.25995,-2.85714 1.66417,0 3.02576,-1.92857 3.02576,-4.28572 0,-2.35714 1.3616,-4.28571 3.02576,-4.28571 1.66417,0 2.23115,-1.28571 1.25996,-2.85714 -0.9712,-1.57143 -0.40422,-2.85715 1.25995,-2.85715 1.66417,0 3.02576,-1.92857 3.02576,-4.28571 0,-2.35714 1.32607,-4.28571 2.94681,-4.28571 1.62075,0 3.77253,-2.15179 4.78174,-4.78174 2.26336,-5.89821 4.99721,-9.04164 28.14454,-32.36112 23.40333,-23.57739 29.13439,-28.57143 32.78801,-28.57143 1.62075,0 3.68687,-1.92857 4.5914,-4.28571 0.90452,-2.35715 3.43559,-4.28572 5.62461,-4.28572 2.18902,0 3.98003,-1.36159 3.98003,-3.02576 0,-1.66417 1.28572,-2.231151 2.85715,-1.25995 1.57142,0.97119 2.85714,0.40421 2.85714,-1.259955 0,-1.664169 1.92857,-3.025763 4.28571,-3.025763 2.35715,0 4.28572,-1.361594 4.28572,-3.025763 0,-1.664168 1.28571,-2.231148 2.85714,-1.259951 1.57143,0.971197 2.85714,0.32834 2.85714,-1.428572 0,-1.756911 1.28572,-2.399768 2.85715,-1.428571 1.57142,0.971197 2.85714,0.32834 2.85714,-1.428571 0,-1.756912 1.28571,-2.399769 2.85714,-1.428572 1.57143,0.971197 2.85714,0.32834 2.85714,-1.428571 0,-1.756912 1.28572,-2.399769 2.85715,-1.428572 1.57143,0.971197 2.85714,0.189943 2.85714,-1.736142 0,-1.926074 0.81191,-2.690046 1.80424,-1.697716 0.99233,0.99233 4.52804,0.305197 7.85714,-1.526962 3.3291,-1.83216 8.62433,-3.752676 11.76719,-4.267815 3.14286,-0.515139 6.11878,-2.112921 6.61317,-3.550627 0.49438,-1.437707 2.74438,-1.905825 5,-1.040264 2.25561,0.865561 4.10367,0.471905 4.10679,-0.874792 0.003,-1.346696 4.08314,-2.735696 9.0667,-3.086665 4.98357,-0.350969 10.28054,-1.85764 11.77105,-3.348157 1.49052,-1.490518 4.49831,-2.023806 6.68398,-1.185087 2.18567,0.83872 5.56471,0.243797 7.50898,-1.322048 4.72502,-3.805356 105.25519,-3.833083 109.92725,-0.03032 1.94425,1.582521 5.47997,2.130966 7.85714,1.218766 2.37714,-0.9122 4.32209,-0.275626 4.32209,1.414609 0,1.690235 1.8874,2.348892 4.1942,1.463683 2.30682,-0.885209 5.00831,-0.292257 6.00331,1.317671 0.99497,1.609928 3.48189,2.28522 5.52643,1.500649 2.04457,-0.784572 4.59308,-0.550795 5.6634,0.519504 1.07028,1.070298 3.12457,2.106711 4.56503,2.30314 1.44048,0.196427 3.26191,0.67857 4.04763,1.071427 0.78571,0.392858 2.39285,0.92056 3.57142,1.172673 1.17858,0.252114 4.71429,1.893183 7.85715,3.646822 3.14285,1.75364 6.35714,3.171549 7.14285,3.15091 3.00786,-0.07901 35.76195,16.422773 36.6726,18.47597 0.52709,1.18836 2.13423,1.433911 3.57143,0.545665 1.4372,-0.888248 2.61312,-0.2534 2.61312,1.410769 0,1.664168 1.79103,3.025768 3.98003,3.025768 2.18902,0 4.79071,2.11259 5.78154,4.69465 0.99083,2.58206 2.47746,4.01871 3.3036,3.19257 0.82614,-0.82615 6.70468,3.1684 13.06346,8.87678 6.35874,5.70837 12.40254,10.41182 13.43065,10.45212 2.7806,0.10897 19.93635,18.05015 18.5682,19.4183 -0.64711,0.6471 3.41137,5.20479 9.01883,10.1282 5.60746,4.92342 9.18634,8.99444 7.95312,9.04672 -1.23326,0.0523 0.70697,2.55405 4.31162,5.55948 3.60466,3.00544 6.487,6.49838 6.4052,7.76209 -0.0817,1.26371 1.50255,4.22623 3.5208,6.58337 2.01826,2.35715 3.94012,5.25874 4.2708,6.44798 0.33069,1.18925 3.85003,8.57337 7.82072,16.40917 3.97068,7.83579 6.98497,14.57706 6.69834,14.98059 -0.2866,0.40353 1.25777,3.94798 3.43189,7.87655 2.17414,3.92857 4.15928,8.10714 4.41137,9.28571 0.252,1.17858 0.71748,2.46429 1.03414,2.85715 0.31666,0.39285 1.12023,2.96428 1.78572,5.71428 l 2.41994,10 c 0.66548,2.75 1.47243,5 1.7932,5 4.36008,0 7.38354,71.89997 4.02488,95.71429 -0.77568,5.5 -1.77091,12.59403 -2.2116,15.76451 -0.44068,3.17049 -1.83342,7.4346 -3.09497,9.4758 -1.26151,2.0412 -1.53323,4.47175 -0.6038,5.40117 0.92943,0.92943 0.258,3.41535 -1.49231,5.5242 -1.7502,2.10889 -2.22449,3.83432 -1.05394,3.83432 1.17054,0 0.52768,1.92857 -1.42858,4.28571 -1.95625,2.35715 -2.59911,4.28572 -1.42857,4.28572 1.17055,0 0.52769,1.92857 -1.42857,4.28571 -1.95626,2.35714 -2.43511,4.3054 -1.06411,4.32946 1.37097,0.0229 0.82114,1.10403 -1.22186,2.39994 -2.04303,1.29592 -3.92377,5.13334 -4.17946,8.52769 -0.25571,3.39431 -1.55285,6.17148 -2.88263,6.17148 -1.32977,0 -1.62314,1.28572 -0.65194,2.85715 0.9712,1.57142 0.32834,2.85714 -1.42857,2.85714 -1.75691,0 -2.39977,1.28571 -1.42857,2.85714 0.9712,1.57143 0.19,2.85714 -1.73614,2.85714 -1.92609,0 -2.75195,0.75 -1.83529,1.66666 0.91666,0.91669 -0.84451,4.17786 -3.91374,7.24709 -3.06923,3.06923 -4.89803,6.68448 -4.06403,8.03394 0.834,1.34946 -0.58883,3.2614 -3.16186,4.24874 -2.57303,0.98737 -3.87134,2.60212 -2.88514,3.58832 0.9862,0.9862 -0.43692,3.42374 -3.16249,5.41671 -2.72557,1.993 -4.95894,4.69154 -4.96303,5.9968 -0.009,3.03834 -46.24797,49.11063 -56.86322,56.65889 -4.41986,3.14285 -11.43209,7.64285 -15.58272,10 -4.15066,2.35714 -8.18948,5.03831 -8.9752,5.95817 -2.24588,2.62928 -35.46871,17.85728 -37.85714,17.35214 -1.17857,-0.24923 -2.14286,0.83254 -2.14286,2.40397 0,1.57143 -0.96428,2.70489 -2.14286,2.5188 -1.17857,-0.186 -3.10714,-0.0257 -4.28571,0.35715 -3.78069,1.22705 -6.21526,1.8082 -17.14286,4.09211 -5.89285,1.23163 -10.71428,3.26157 -10.71428,4.511 0,1.24943 -2.57143,1.59926 -5.71429,0.77737 -3.14286,-0.82188 -5.71428,-0.0988 -5.71428,1.60637 0,1.7054 -1.867,2.38429 -4.14889,1.50863 -2.28191,-0.87563 -5.81763,-0.54417 -7.85714,0.7366 -2.03955,1.28077 -7.5654,2.55949 -12.27969,2.84157 -53.52485,3.20295 -69.76854,3.40509 -77.14286,0.96006 z"
       id="path856"
       inkscape:connector-curvature="0"
       transform="scale(0.26458333)" />
    <path
       style="fill:#8cfffb;fill-opacity:1;stroke:#8cfffb;stroke-width:0.71541053;stroke-miterlimit:4;stroke-dasharray:none;stroke-opacity:1"
       d="m 433.93898,595.99488 c -2.55357,-0.32456 -7.05357,-1.13261 -10,-1.79567 -3.94474,-0.88772 -6.91079,-1.08429 -11.25,-0.74558 -5.01232,0.39126 -5.89286,0.29678 -5.89286,-0.63224 0,-2.24304 -3.13659,-3.38815 -7.82703,-2.85748 -3.90428,0.44172 -4.55701,0.3262 -6.04258,-1.06942 -1.35069,-1.26892 -2.40045,-1.5349 -5.55431,-1.4073 -3.09818,0.12535 -4.34094,-0.17691 -6.11241,-1.48661 -1.80643,-1.33555 -2.83567,-1.57496 -5.48647,-1.27617 -2.29514,0.25869 -3.26291,0.10885 -3.26291,-0.50521 0,-1.75181 -2.60661,-3.23725 -5.68063,-3.23725 -1.98677,0 -5.05766,-0.89829 -8.71292,-2.54868 -3.10462,-1.40178 -6.19865,-2.42421 -6.87561,-2.27207 -0.67697,0.15214 -3.50827,-0.95095 -6.29178,-2.45131 -2.78351,-1.50037 -6.00194,-2.72794 -7.15205,-2.72794 -1.48346,0 -2.29601,-0.46702 -2.79621,-1.60714 -0.56482,-1.28741 -1.29473,-1.61252 -3.66888,-1.63413 -2.30801,-0.021 -3.71685,-0.61369 -6.36722,-2.67857 -1.87189,-1.45837 -4.07803,-2.65159 -4.90255,-2.65159 -0.86953,0 -1.79523,-0.67495 -2.2042,-1.60714 -0.5249,-1.19642 -1.29995,-1.60529 -3.03276,-1.59986 -1.57424,0.005 -2.45329,-0.38858 -2.71582,-1.21569 -0.35932,-1.13215 -3.51303,-2.86469 -10.69715,-5.87664 -1.58592,-0.6649 -3.19306,-1.9142 -3.57143,-2.77622 -0.44379,-1.01108 -1.94979,-1.9665 -4.24354,-2.69216 -2.94785,-0.93259 -3.87095,-1.66406 -5.40057,-4.27948 -1.45567,-2.48898 -2.57165,-3.42443 -5.28884,-4.4333 -4.47837,-1.66279 -4.73089,-1.86984 -21.37532,-17.52682 -15.19965,-14.29792 -27.28641,-27.06947 -30.49173,-32.21927 -1.10734,-1.77911 -3.02298,-3.6722 -4.34997,-4.29877 -1.92245,-0.90774 -2.45783,-1.65244 -2.82882,-3.93482 -0.30847,-1.89774 -1.16134,-3.41045 -2.61706,-4.64178 -1.18771,-1.00464 -2.99609,-2.52551 -4.01864,-3.37971 -1.03598,-0.86543 -1.85916,-2.29732 -1.85916,-3.23393 0,-2.07346 -1.86498,-4.85584 -3.25479,-4.85584 -0.62882,0 -1.03093,-0.71034 -1.03093,-1.82118 0,-2.39504 -1.37537,-4.95869 -4.97878,-9.2803 -2.27146,-2.72419 -2.87077,-3.9706 -2.59715,-5.40149 0.39337,-2.05713 -0.6334,-3.49703 -2.49367,-3.49703 -0.91048,0 -1.18623,-0.57105 -1.10714,-2.29276 0.0847,-1.84491 -0.27837,-2.48038 -1.85897,-3.25326 -1.43739,-0.70286 -1.96429,-1.49006 -1.96429,-2.93473 0,-4.441 -4.65906,-16.15915 -6.74267,-16.95871 -0.57614,-0.22109 -0.94229,-1.36096 -0.90133,-2.80596 0.0453,-1.59733 -0.47285,-3.01038 -1.50778,-4.11201 -1.19045,-1.26718 -1.47201,-2.20216 -1.14921,-3.81618 0.32967,-1.64831 0.009,-2.63502 -1.39977,-4.30945 -1.58873,-1.8881 -1.77398,-2.62789 -1.41877,-5.66573 0.34568,-2.95627 0.15033,-3.82071 -1.26917,-5.61628 -1.27545,-1.61336 -1.69292,-3.06917 -1.74108,-6.07143 -0.0348,-2.17207 -0.74186,-5.7347 -1.57115,-7.91698 -1.99397,-5.2471 -2.86087,-14.85499 -3.41223,-37.81794 -0.51537,-21.46419 0.60461,-52.9319 2.13976,-60.12017 0.55947,-2.61966 1.80438,-7.28038 2.76649,-10.35714 0.9621,-3.07677 2.4866,-10.17448 3.38777,-15.7727 1.36378,-8.472 1.84256,-10.17857 2.85564,-10.17857 2.07552,0 3.04042,-1.90673 2.60556,-5.14883 -0.33822,-2.52163 -0.13663,-3.23765 1.2816,-4.55202 0.92562,-0.85784 2.05268,-2.96358 2.50458,-4.67943 0.45189,-1.71585 1.13188,-4.32507 1.51108,-5.79829 0.38165,-1.48274 1.1335,-2.67857 1.68408,-2.67857 1.1954,0 2.05753,-2.36534 1.50111,-4.11846 -0.2714,-0.85513 0.11566,-1.48952 1.20187,-1.96988 1.1935,-0.5278 1.57898,-1.26569 1.5112,-2.89271 -0.0664,-1.59355 0.31991,-2.36616 1.42857,-2.85714 1.1386,-0.50425 1.49316,-1.25357 1.41425,-2.98882 -0.0662,-1.45578 0.2329,-2.31585 0.80539,-2.31585 1.4131,0 2.71,-1.96387 3.17139,-4.80236 0.30731,-1.89065 0.9947,-2.90834 2.56004,-3.79018 1.71939,-0.96863 2.11923,-1.64649 2.03461,-3.44936 -0.0656,-1.3974 0.23822,-2.24381 0.80539,-2.24381 1.41925,0 2.71065,-1.96782 3.17791,-4.84248 0.28127,-1.73043 0.96934,-2.89532 2.01941,-3.41884 2.76722,-1.37961 4.55502,-3.40379 6.62516,-7.50113 2.70012,-5.34423 10.57991,-13.99708 32.20545,-35.36502 19.1152,-18.88751 22.75736,-22.00028 27.11467,-23.17358 2.11868,-0.5705 3.15906,-1.48135 4.8722,-4.26555 1.5095,-2.45324 2.7868,-3.67573 4.16027,-3.98174 3.97522,-0.88567 4.50361,-1.14893 5.37774,-2.67928 0.6025,-1.0548 1.57905,-1.5581 3.02321,-1.5581 1.61139,0 2.35859,-0.47019 3.05447,-1.9221 0.90121,-1.880315 1.35367,-2.136734 5.32995,-3.020583 1.07043,-0.237935 2.35614,-1.151738 2.85714,-2.030675 0.62215,-1.09147 1.58353,-1.598066 3.03268,-1.598066 1.40045,0 2.37177,-0.48566 2.85715,-1.428572 0.48537,-0.942912 1.45669,-1.428571 2.85714,-1.428571 1.40044,0 2.37176,-0.485659 2.85714,-1.428572 0.48784,-0.947692 1.45669,-1.428571 2.87824,-1.428571 1.53514,0 2.34221,-0.454382 2.84582,-1.602195 0.46961,-1.070346 1.1127,-1.472148 1.9373,-1.210429 1.58964,0.504531 4.14545,-0.859555 4.14545,-2.212507 0,-0.704132 0.75916,-1.046482 2.32143,-1.046861 1.27678,-3.1e-4 4.25143,-0.913619 6.61031,-2.029577 4.41941,-2.090759 7.06452,-3.032345 12.32764,-4.388309 1.6748,-0.431486 4.11802,-1.726567 5.42938,-2.877956 2.132,-1.871927 2.64067,-2.019905 4.80733,-1.398515 3.30182,0.94695 3.34757,0.93722 5.25134,-1.116989 1.4014,-1.512138 3.00997,-2.035633 9.72265,-3.164167 5.58722,-0.93932 8.6921,-1.831836 10.16763,-2.922747 1.80627,-1.335428 2.72468,-1.508064 6.1361,-1.153405 3.09064,0.321308 4.71617,0.101164 7.07882,-0.958676 5.25747,-2.3584 19.0002,-3.115797 56.2188,-3.098361 33.86732,0.01587 50.20409,0.783973 53.43347,2.512286 2.58424,1.383045 6.08356,1.903484 8.75201,1.301652 2.29534,-0.517683 2.60786,-0.401861 3.21343,1.190903 0.62352,1.639976 0.96989,1.749536 4.91322,1.554107 3.6426,-0.180526 4.49652,0.02848 6.0398,1.478317 1.5621,1.467513 2.29258,1.639023 5.57988,1.310101 2.9546,-0.295632 4.27884,-0.0762 6.0503,1.002555 1.2473,0.759563 4.14015,1.858954 6.42857,2.443092 2.28841,0.584138 7.53575,2.623777 11.66075,4.532532 4.125,1.908755 9.42857,4.203218 11.78571,5.098806 6.61882,2.514796 25.15895,11.906038 30.56644,15.482996 2.95353,1.953716 5.37128,3.073857 6.17886,2.862667 0.88487,-0.231397 1.83331,0.33825 2.84781,1.71044 0.8913,1.20555 2.18578,2.05738 3.12648,2.05738 2.28414,0 4.4555,1.7274 6.30268,5.01401 0.87886,1.56372 1.77982,2.88416 2.00212,2.9343 0.2223,0.0501 1.08295,0.16483 1.91257,0.25488 1.99899,0.21697 6.39088,3.33075 14.14249,10.02683 3.50084,3.02413 8.48299,6.86854 11.07143,8.54313 6.04706,3.91214 16.55169,14.70165 18.63829,19.14375 1.10764,2.35799 3.90141,5.54634 9.01507,10.28832 4.44399,4.12097 7.41005,7.42027 7.41005,8.24258 0,0.75412 2.51663,3.99937 5.59251,7.21167 3.21701,3.35968 5.81948,6.75075 6.12684,7.98339 0.29389,1.17857 1.75398,3.75 3.24463,5.71429 2.83141,3.73102 18.60745,35.65887 18.60745,37.6581 0,0.63195 1.33787,3.6674 2.97305,6.74545 4.14367,7.80003 6.02731,12.82649 8.52143,22.7393 1.18614,4.71429 2.8044,9.83053 3.59613,11.36943 4.80219,9.33402 6.59841,74.55937 2.78501,101.13057 -1.10049,7.66804 -2.24037,12.7162 -3.70809,16.42195 -1.54035,3.88913 -1.99822,5.99514 -1.67638,7.7107 0.32587,1.737 0.035,3.02 -1.10155,4.85898 -0.92525,1.49708 -1.41013,3.20078 -1.20956,4.24998 0.21576,1.12864 -0.26886,2.56939 -1.36315,4.05262 -1.07602,1.45847 -1.64279,3.11993 -1.54741,4.5362 0.0943,1.40007 -0.43484,2.97893 -1.41663,4.22708 -0.86193,1.09576 -1.56714,2.78647 -1.56714,3.75714 0,0.97066 -0.77529,2.68623 -1.72287,3.81236 -0.98281,1.168 -2.19419,4.11379 -2.82011,6.85782 -0.72483,3.17765 -1.61504,5.20088 -2.62286,5.96107 -1.08525,0.81862 -1.45675,1.75535 -1.28703,3.2453 0.17406,1.528 -0.14781,2.29212 -1.18999,2.82509 -0.87085,0.44536 -1.51399,1.60421 -1.64738,2.96838 -0.16768,1.71501 -0.64456,2.34466 -2.04125,2.69521 -1.4794,0.3713 -1.75852,0.79189 -1.4828,2.23425 0.33646,1.76005 -0.191,2.6496 -5.42867,9.1554 -1.16675,1.44925 -2.19505,3.76038 -2.42029,5.43965 -0.33474,2.49567 -0.78476,3.12037 -3.09796,4.30048 -2.70485,1.37991 -4.05,3.54792 -3.12746,5.04062 0.27283,0.44145 -1.22502,2.577 -3.38618,4.82782 -2.13148,2.2199 -4.33983,4.99748 -4.90743,6.17238 -1.20455,2.49335 -32.30701,34.2966 -44.15433,45.14921 -9.72445,8.90797 -13.13948,11.482 -24.17511,18.22172 -4.62927,2.8272 -9.83774,6.2066 -11.57439,7.50979 -5.19475,3.89814 -29.7143,15.34898 -37.07263,17.31323 -2.3557,0.62884 -3.24849,1.28648 -3.76744,2.77515 -0.56711,1.62682 -1.30036,2.07467 -4.41268,2.69519 -17.26355,3.44187 -29.804,7.2369 -29.804,9.01938 0,0.46833 -1.40442,0.56891 -3.88051,0.27789 -4.51623,-0.53079 -7.19762,0.27072 -7.73115,2.31097 -0.34144,1.30567 -0.64035,1.37456 -3.06233,0.70582 -2.25406,-0.62238 -3.55339,-0.45319 -8.11212,1.05631 -7.48957,2.47996 -7.28719,2.45514 -29.71389,3.6439 -26.84523,1.42297 -46.1503,1.84301 -51.78571,1.12675 z"
       id="path868"
       inkscape:connector-curvature="0"
       transform="scale(0.26458333)" />
    <path
       style="fill:#8cfffb;fill-opacity:1;stroke:#8cfffb;stroke-width:0.71541053;stroke-miterlimit:4;stroke-dasharray:none;stroke-opacity:1"
       d="m 433.58184,596.26164 c -1.17858,-0.18117 -4.39286,-0.83856 -7.14286,-1.46087 -2.94968,-0.66748 -8.00227,-1.10722 -12.32143,-1.07234 -4.02679,0.0325 -7.32143,-0.22776 -7.32143,-0.57838 0,-1.90378 -2.42856,-2.88238 -7.15305,-2.88238 -3.70844,0 -5.53184,-0.36799 -7.45972,-1.50547 -1.80509,-1.06503 -3.33207,-1.4083 -5.2194,-1.17335 -1.96982,0.24522 -3.47031,-0.13101 -5.73494,-1.43795 -2.42142,-1.39743 -3.6518,-1.67656 -5.8445,-1.32594 -2.30562,0.36868 -2.8486,0.21976 -3.19662,-0.87676 -0.50836,-1.60171 -3.29978,-2.96625 -6.06798,-2.96625 -1.12067,0 -4.99795,-1.1433 -8.6162,-2.54067 -3.61825,-1.39736 -6.73239,-2.38691 -6.92032,-2.19898 -0.18793,0.18793 -2.94816,-0.91877 -6.13384,-2.45933 -3.18568,-1.54056 -6.45504,-2.80102 -7.26526,-2.80102 -0.81021,0 -1.87458,-0.64286 -2.36526,-1.42857 -0.6043,-0.96764 -1.66573,-1.42857 -3.2897,-1.42857 -1.61969,0 -3.76132,-0.92641 -6.60109,-2.85544 -2.31195,-1.5705 -4.68873,-2.85621 -5.28173,-2.85715 -0.593,-7.1e-4 -1.47965,-0.64455 -1.97034,-1.43027 -0.492,-0.78782 -1.66573,-1.42857 -2.61687,-1.42857 -0.94859,0 -2.63337,-0.90753 -3.74395,-2.01674 -1.11057,-1.1092 -4.06884,-2.7967 -6.57391,-3.75 -2.61053,-0.99342 -5.50583,-2.73262 -6.78302,-4.07452 -1.22559,-1.28769 -3.42642,-2.66386 -4.89074,-3.05816 -1.9386,-0.52202 -3.2538,-1.57649 -4.83783,-3.8788 -1.59454,-2.31759 -3.36386,-3.72936 -6.62602,-5.28703 -3.46472,-1.65439 -7.53587,-5.03541 -18.37914,-15.26362 -16.78261,-15.83064 -27.70281,-27.1847 -31.44269,-32.69193 -1.52458,-2.24503 -3.87043,-4.72999 -5.21302,-5.52214 -1.80885,-1.06725 -2.56573,-2.10479 -2.92241,-4.00607 -0.35277,-1.8804 -1.43114,-3.38051 -4.03678,-5.61555 -2.39721,-2.05624 -3.78926,-3.90983 -4.2732,-5.69 -0.39477,-1.45215 -1.51359,-3.26627 -2.48626,-4.03137 -0.97267,-0.76511 -1.7685,-1.9233 -1.7685,-2.57377 0,-1.70733 -1.90298,-5.136 -5.08447,-9.16089 -1.98604,-2.51254 -2.77267,-4.1949 -2.77267,-5.92995 0,-1.98802 -0.32011,-2.50259 -1.78571,-2.87043 -1.38559,-0.34776 -1.78572,-0.90729 -1.78572,-2.49714 0,-1.35581 -0.56141,-2.4168 -1.65954,-3.13633 -1.22107,-0.80007 -1.86953,-2.21654 -2.45432,-5.36107 -0.92517,-4.97483 -4.02614,-12.25836 -5.96673,-14.01457 -0.75781,-0.68581 -1.35493,-2.18779 -1.36386,-3.43063 -0.009,-1.21589 -0.64445,-3.01429 -1.41269,-3.99643 -0.76824,-0.98215 -1.40395,-2.8611 -1.41269,-4.17545 -0.009,-1.31436 -0.69269,-3.34023 -1.51991,-4.50195 -1.20342,-1.69005 -1.41285,-2.72023 -1.04782,-5.15437 0.38001,-2.5341 0.15402,-3.48746 -1.35312,-5.70835 -1.3068,-1.92568 -1.80932,-3.60658 -1.80932,-6.05208 0,-1.86224 -0.62207,-5.15578 -1.38237,-7.319 -2.58796,-7.36319 -3.23382,-17.72037 -3.22592,-51.73166 0.008,-36.08331 0.51175,-42.81269 4.17679,-55.83719 1.30755,-4.64669 3.11066,-12.70745 4.00691,-17.91281 1.09983,-6.38781 1.92792,-9.46429 2.54747,-9.46429 2.07709,0 3.239,-2.21864 2.77664,-5.30193 -0.34538,-2.30312 -0.17689,-3.22006 0.72997,-3.97269 1.71227,-1.42105 2.94227,-4.12659 3.87154,-8.51587 0.52508,-2.48016 1.46694,-4.46369 2.63242,-5.54383 1.30153,-1.20622 1.6816,-2.10161 1.34383,-3.16586 -0.33405,-1.0525 -0.0358,-1.78877 1.02587,-2.53238 0.89179,-0.62464 1.49685,-1.82882 1.49685,-2.97898 0,-1.15696 0.57244,-2.28803 1.42857,-2.82269 0.83297,-0.5202 1.42858,-1.66573 1.42858,-2.74759 0,-1.1209 0.69642,-2.40324 1.75915,-3.23918 0.97367,-0.76589 1.96675,-2.49033 2.22407,-3.862 0.29618,-1.57874 1.21322,-3.01107 2.52657,-3.94626 1.3455,-0.95809 2.06163,-2.09772 2.06163,-3.28086 0,-1.07564 0.71537,-2.37556 1.75916,-3.1966 0.98472,-0.77458 1.96707,-2.49204 2.23145,-3.90129 0.34221,-1.82417 1.18561,-2.99077 3.06227,-4.23577 1.63324,-1.08352 3.77734,-3.76972 5.80427,-7.27179 2.66653,-4.60715 6.80512,-9.19213 24.28571,-26.90522 23.86151,-24.17887 30.40253,-30.105 34.42383,-31.18782 2.09105,-0.56307 3.39248,-1.61118 5.30358,-4.2713 1.90749,-2.65509 3.21382,-3.70857 5.29284,-4.2684 1.51817,-0.4088 3.38629,-1.53909 4.15139,-2.51176 0.8274,-1.05186 2.12572,-1.7685 3.20395,-1.7685 1.199,0 2.32951,-0.72558 3.3387,-2.14286 1.00121,-1.406069 2.142,-2.142853 3.31787,-2.142853 1.03875,0 2.69276,-0.90074 3.93488,-2.142857 1.19767,-1.197676 2.9036,-2.142857 3.86757,-2.142857 0.95114,0 2.12487,-0.640749 2.61687,-1.428572 0.54094,-0.86617 1.66574,-1.428571 2.85714,-1.428571 1.19142,0 2.31622,-0.562401 2.85715,-1.428571 0.54093,-0.866171 1.66573,-1.428572 2.85714,-1.428572 1.19141,0 2.31621,-0.562401 2.85714,-1.428571 0.53467,-0.856135 1.66574,-1.428572 2.82269,-1.428572 1.06463,0 2.34919,-0.592019 2.8639,-1.319893 0.51335,-0.725941 2.20413,-1.556347 3.75728,-1.845347 1.55315,-0.289001 4.03491,-1.143255 5.515,-1.898343 1.4801,-0.755088 5.63049,-2.325638 9.22309,-3.490111 3.5926,-1.164474 7.56743,-2.906988 8.83297,-3.872254 1.89081,-1.442192 2.83604,-1.683261 5.30279,-1.3524 2.43757,0.326945 3.3094,0.113694 4.638,-1.134462 1.15061,-1.08095 3.8221,-1.953621 9.00226,-2.940691 4.05136,-0.771979 8.70738,-2.052893 10.3467,-2.846477 2.01049,-0.973261 4.42579,-1.442879 7.42087,-1.442879 2.44216,0 5.61808,-0.492115 7.05762,-1.093589 5.2528,-2.19476 16.28551,-2.741634 55.19393,-2.735873 39.2114,0.0058 49.96694,0.551896 55.37505,2.811551 1.81258,0.757345 3.99645,1.054156 6.19905,0.842514 3.01469,-0.289674 3.53221,-0.125875 4.56045,1.443412 1.04526,1.595267 1.50065,1.729804 4.60897,1.361669 2.85577,-0.338224 3.79253,-0.13876 5.44537,1.159481 1.52531,1.198072 3.01074,1.581624 6.29653,1.625822 2.63305,0.03541 5.68495,0.637659 7.87172,1.553354 1.96428,0.822531 6.78571,2.768843 10.71428,4.325136 20.70173,8.200934 34.96678,14.873226 46.00687,21.519102 3.30378,1.988795 6.699,3.615993 7.54493,3.615993 0.84594,0 2.4455,0.947151 3.55459,2.104791 1.10909,1.15763 2.851,2.20227 3.87092,2.32143 1.27469,0.14891 2.72712,1.38895 4.64607,3.96664 1.5354,2.0625 3.35704,3.75 4.04807,3.75 1.72802,0 6.89932,3.6002 15.11851,10.52535 3.81305,3.21271 8.31305,6.73105 10,7.81852 7.14559,4.6063 16.71732,14.35069 19.56637,19.91933 0.58922,1.15166 4.43045,5.47419 8.53607,9.6056 4.10561,4.13142 7.46475,7.91138 7.46475,8.39992 0,0.48854 2.27945,3.34665 5.06545,6.35135 2.78599,3.0047 5.59076,6.6176 6.23281,8.02865 0.64205,1.41106 2.43094,4.47048 3.97532,6.79872 3.11294,4.69296 16.90367,32.70082 18.31457,37.19541 0.49328,1.57143 2.41376,5.91072 4.26773,9.64286 3.63685,7.32116 4.6258,10.03331 7.83205,21.47895 1.14777,4.09729 2.73874,9.25829 3.5355,11.46887 2.89963,8.045 3.92469,23.1451 3.94566,58.12361 0.018,30.01169 -0.0886,32.82498 -1.60707,42.43078 -0.89449,5.65836 -2.30551,12.08693 -3.13559,14.28571 -0.83009,2.19879 -1.64275,5.76565 -1.80592,7.92637 -0.16317,2.16071 -0.94352,5.29233 -1.73411,6.95915 -0.7906,1.66682 -1.28932,3.43468 -1.10828,3.92858 0.18104,0.49389 -0.30656,1.95362 -1.08355,3.24385 -0.77699,1.29022 -1.51662,3.46376 -1.6436,4.83009 -0.12699,1.36633 -0.89755,3.56291 -1.71236,4.88131 -0.81481,1.31838 -1.48147,2.92852 -1.48147,3.57807 0,0.64955 -0.78132,2.37947 -1.73626,3.84426 -0.95495,1.46479 -2.21998,4.54909 -2.81117,6.85399 -0.59119,2.3049 -1.77997,4.94125 -2.64173,5.85855 -1.00543,1.07024 -1.4272,2.20174 -1.17715,3.15797 0.25922,0.99123 -0.18818,2.06802 -1.33629,3.21613 -0.94929,0.94928 -1.72597,2.33184 -1.72597,3.07235 0,0.75207 -0.80869,1.71485 -1.83202,2.18111 -1.30687,0.59545 -1.71352,1.20806 -1.41864,2.13714 0.24929,0.78544 -0.2962,2.27168 -1.37423,3.74423 -4.35928,5.95456 -6.10171,8.92392 -6.50826,11.09102 -0.31113,1.65845 -1.2357,2.8546 -3.22299,4.16973 -2.02408,1.33947 -2.78672,2.34072 -2.78672,3.6586 0,1.16322 -1.47408,3.57725 -4.10714,6.72605 -2.25893,2.7014 -5.39286,6.58737 -6.96429,8.6355 -3.66473,4.77645 -34.94209,36.23701 -44.28571,44.54512 -3.92857,3.49318 -10.83929,8.7624 -15.35714,11.70937 -4.51786,2.94696 -11.41768,7.45054 -15.33295,10.00795 -9.5725,6.25266 -23.57354,12.91665 -40.9314,19.48188 -0.89181,0.33732 -1.90553,1.36041 -2.25271,2.27355 -0.55692,1.46483 -1.87703,1.93787 -11.21514,4.01871 -11.94101,2.66086 -20.79375,5.37561 -22.4669,6.88961 -0.73928,0.66896 -2.76327,1.02041 -5.8764,1.02041 -4.19713,0 -4.87655,0.1951 -5.84926,1.67965 -0.96749,1.47658 -1.52114,1.63923 -4.57948,1.34537 -2.44024,-0.23448 -4.82955,0.13313 -8.00264,1.23123 -2.48803,0.86105 -7.26503,1.8493 -10.61555,2.19612 -14.22075,1.47204 -65.12019,3.2069 -70.37757,2.39875 z"
       id="path870"
       inkscape:connector-curvature="0"
       transform="scale(0.26458333)" />
    <path
       style="fill:#8cfffb;fill-opacity:1;stroke:#8cfffb;stroke-width:0.71541053;stroke-miterlimit:4;stroke-dasharray:none;stroke-opacity:1"
       d="m 428.22469,598.83252 c -18.89016,-1.74805 -21.76321,-2.25613 -42.6034,-7.53394 -13.09173,-3.31551 -28.30311,-8.35186 -39.8966,-13.2094 -3.92857,-1.64602 -8.10714,-3.15309 -9.28571,-3.34904 -1.17857,-0.19595 -2.78572,-0.89765 -3.57143,-1.55934 -1.85723,-1.56406 -13.47514,-7.19885 -14.84272,-7.19885 -0.57958,0 -1.47573,-0.50841 -1.99144,-1.1298 -0.51571,-0.62139 -1.98194,-1.66603 -3.25831,-2.32143 -2.26932,-1.16528 -13.50435,-7.96738 -20.63067,-12.49058 -12.48603,-7.92511 -30.93605,-23.16462 -44.66038,-36.88895 -14.15695,-14.15695 -25.37365,-27.70972 -34.45723,-41.63352 -1.98626,-3.04465 -3.85763,-5.53572 -4.15861,-5.53572 -0.30098,0 -0.77394,-0.71428 -1.05102,-1.58729 -0.27708,-0.87302 -2.89604,-5.76669 -5.81991,-10.87483 -2.92387,-5.10814 -5.756,-10.34029 -6.29361,-11.62699 -0.53762,-1.2867 -1.31532,-2.33946 -1.72823,-2.33946 -0.4129,0 -0.75073,-0.62729 -0.75073,-1.39397 0,-1.28452 -2.71982,-8.05262 -6.7594,-16.82032 -1.60705,-3.48803 -6.07457,-17.14471 -8.87925,-27.14285 -8.17413,-29.13913 -10.08185,-75.27586 -4.68135,-113.21429 1.33162,-9.35458 7.97132,-35.03436 10.56723,-40.86991 0.64974,-1.4606 1.18134,-2.83364 1.18134,-3.0512 0,-0.96998 9.57977,-22.88302 12.14836,-27.78851 1.5684,-2.99534 2.85164,-5.92532 2.85164,-6.51108 0,-0.58576 0.29728,-1.06501 0.66061,-1.06501 0.74062,0 7.91082,-12.21584 7.91082,-13.47763 0,-0.44445 0.30788,-0.80809 0.68418,-0.80809 0.37629,0 1.57534,-1.52678 2.66454,-3.39286 2.43913,-4.17882 14.29081,-19.75931 21.53433,-28.30952 7.1022,-8.3834 20.87997,-22.18969 29.75981,-29.82143 7.65898,-6.58248 24.63429,-19.60657 30.13286,-23.11905 1.84499,-1.17857 3.85557,-2.47117 4.46797,-2.872449 1.65331,-1.083343 12.60364,-7.59053 16.00965,-9.513675 5.66665,-3.199569 16.63294,-8.6853 17.3624,-8.6853 0.40385,0 1.31605,-0.642857 2.02712,-1.428572 0.71106,-0.785714 1.8618,-1.428571 2.55719,-1.428571 0.69539,0 5.54737,-1.738924 10.78215,-3.864275 24.35947,-9.89007 49.28769,-16.750042 69.5178,-19.130538 10.98264,-1.292337 79.44177,-1.300977 88.92857,-0.01122 40.05983,5.44623 90.38495,24.995205 125.83084,48.87944 32.72459,22.05056 60.1336,50.09547 80.07562,81.9334 9.57826,15.29193 19.97323,37.02003 25.65327,53.62176 10.19052,29.78509 13.99849,50.78504 14.65002,80.79114 0.56915,26.21172 -1.45094,45.08958 -7.3295,68.49458 -2.60278,10.3628 -8.27897,28.55456 -10.3635,33.21429 -3.38516,7.56712 -7.24309,16.5557 -7.58492,17.67207 -0.20942,0.68392 -1.29863,2.93392 -2.42048,5 -1.12185,2.06607 -2.73881,5.04221 -3.59324,6.61364 -17.00123,31.26797 -43.98338,61.97636 -76.34668,86.89018 -16.80377,12.93582 -40.12688,26.67321 -63.21428,37.23339 -3.14286,1.43754 -6.19643,2.90847 -6.78572,3.26871 -0.58928,0.36024 -2.35714,0.98592 -3.92857,1.39039 -1.57143,0.40447 -7.51786,2.36556 -13.21428,4.35797 -20.38455,7.1298 -39.55689,11.09619 -62.5,12.93005 -13.03155,1.04161 -56.64778,1.5144 -65.35715,0.70845 z m 32.85715,-2.1286 c 32.28441,-1.13803 44.53636,-2.08303 51.97321,-4.00877 3.63884,-0.94226 8.16938,-1.7132 10.06786,-1.7132 2.54466,0 3.79156,-0.37543 4.74464,-1.42857 1.03164,-1.13995 2.19998,-1.42857 5.78284,-1.42857 2.4695,0 4.67579,-0.30062 4.90287,-0.66804 0.22708,-0.36743 2.25498,-1.35803 4.50644,-2.20132 4.66717,-1.74812 25.8006,-7.13064 27.99707,-7.13064 0.7995,0 1.45364,-0.43233 1.45364,-0.96072 0,-1.72689 2.40443,-3.19961 10.60393,-6.49493 4.44096,-1.78479 12.30933,-5.30877 17.48527,-7.83106 11.05031,-5.38494 34.59833,-20.48395 43.30695,-27.76844 3.35711,-2.80813 14.78242,-13.79901 25.38956,-24.42417 19.17707,-19.20965 33.21429,-35.32355 33.21429,-38.12806 0,-0.84713 1.17562,-2.41291 2.77925,-3.70162 1.5391,-1.23687 2.95008,-3.08767 3.16211,-4.14782 0.21058,-1.05289 2.01349,-4.4122 4.00647,-7.46514 1.99297,-3.05293 3.6236,-6.18843 3.6236,-6.96778 0,-0.77933 0.89464,-1.97475 1.98809,-2.65648 1.09346,-0.68172 1.89074,-1.72164 1.77175,-2.31092 -0.11899,-0.58929 0.52272,-1.875 1.42603,-2.85715 0.90333,-0.98214 1.52128,-2.38778 1.37324,-3.12365 -0.14804,-0.73587 0.42738,-2.28007 1.27871,-3.43155 0.85133,-1.15149 2.03806,-3.7637 2.63719,-5.80492 0.59913,-2.04122 1.81316,-5.15773 2.69786,-6.92559 3.20165,-6.39776 4.83655,-10.38131 5.09333,-12.41022 0.14401,-1.13795 0.89272,-3.27935 1.66378,-4.75867 0.77107,-1.47932 1.22094,-2.87065 0.99974,-3.09186 -0.22121,-0.22121 0.24532,-2.10125 1.03672,-4.17787 0.79141,-2.07662 1.75618,-5.70424 2.14394,-8.06138 0.38777,-2.35714 1.37759,-6.85714 2.1996,-10 2.70711,-10.35022 3.71639,-20.04592 4.16382,-40 0.64135,-28.60176 -1.03511,-60.92748 -3.63255,-70.04342 -4.47909,-15.71975 -8.27922,-26.91524 -11.51975,-33.93807 -2.0981,-4.54696 -4.46767,-9.92375 -5.26572,-11.94842 -2.50736,-6.36121 -14.66065,-31.02805 -17.38066,-35.27651 -1.4309,-2.23496 -3.26154,-5.35711 -4.0681,-6.9381 -0.80657,-1.581 -3.70863,-5.3774 -6.44904,-8.43644 -2.7404,-3.05905 -4.98988,-5.83386 -4.99883,-6.16626 -0.009,-0.3324 -3.26758,-4.02883 -7.24137,-8.21428 -3.97379,-4.18547 -8.27666,-9.24674 -9.56192,-11.24727 -3.6235,-5.64005 -10.59301,-12.67756 -18.12855,-18.30545 -3.77859,-2.82203 -10.22004,-7.8408 -14.31431,-11.15282 -4.09428,-3.31202 -8.85544,-6.64614 -10.58036,-7.40915 -1.86869,-0.82662 -3.91206,-2.49459 -5.05586,-4.12704 -1.17853,-1.68202 -3.24579,-3.34589 -5.35469,-4.3098 -1.88928,-0.86353 -3.81482,-2.17815 -4.27897,-2.92137 -0.46415,-0.743225 -1.47357,-1.351317 -2.24315,-1.351317 -0.7696,0 -6.0762,-2.547299 -11.79247,-5.660664 -11.26226,-6.133988 -16.13911,-8.441823 -32.53608,-15.396798 -18.10584,-7.679819 -23.98265,-9.74543 -28.37855,-9.97465 -2.25106,-0.117378 -4.89154,-0.736743 -5.86772,-1.376366 -1.0752,-0.704496 -3.26577,-1.162951 -5.55678,-1.162951 -3.0083,0 -3.96437,-0.292211 -4.67404,-1.428571 -0.7141,-1.143457 -1.66573,-1.428572 -4.76817,-1.428572 -2.13181,0 -4.78088,-0.34453 -5.88681,-0.765623 -1.10593,-0.421092 -3.61793,-1.088983 -5.58221,-1.484201 -5.68545,-1.143922 -48.12944,-1.862103 -74.45074,-1.259756 -20.96471,0.479765 -24.82163,0.743276 -29.47783,2.013973 -2.94643,0.804092 -7.30179,1.469549 -9.67858,1.478796 -2.37678,0.0093 -4.62678,0.308171 -5,0.664278 -0.94391,0.900644 -9.01207,3.268083 -14.76521,4.332553 -2.64051,0.48856 -5.50219,1.496491 -6.35929,2.239849 -1.02937,0.892764 -2.64437,1.35156 -4.75762,1.35156 -1.9356,0 -4.09795,0.555423 -5.47451,1.406185 -3.18558,1.968795 -22.95697,9.308101 -25.07514,9.308101 -1.01689,0 -1.7468,0.415768 -1.7468,0.995008 0,1.124249 -1.51179,1.862135 -3.81517,1.862135 -0.85551,0 -1.95695,0.642857 -2.44763,1.428571 -0.54093,0.866171 -1.66573,1.428571 -2.85715,1.428571 -1.1914,0 -2.3162,0.562401 -2.85714,1.428572 -0.54093,0.866171 -1.66573,1.428571 -2.85714,1.428571 -1.19141,0 -2.31621,0.562401 -2.85715,1.428572 -0.52019,0.832964 -1.66572,1.428571 -2.74758,1.428571 -1.11362,0 -2.40077,0.693274 -3.21941,1.734007 -0.75018,0.953702 -2.55648,2.127569 -4.01398,2.608591 -1.45752,0.481022 -3.24368,1.629291 -3.96925,2.551705 -0.76419,0.97152 -2.08059,1.67713 -3.12887,1.67713 -1.06513,0 -2.3708,0.71339 -3.17361,1.734 -0.75018,0.95371 -2.45887,2.09536 -3.79708,2.53701 -1.38566,0.45731 -3.54366,2.15827 -5.01279,3.95116 -1.53047,1.86774 -4.38568,4.08653 -7.02001,5.45529 -3.65657,1.89988 -8.74284,6.60144 -28.81587,26.63625 -19.76144,19.72382 -25.16262,25.53379 -28.53356,30.69311 -2.2869,3.50019 -5.02874,6.8637 -6.09296,7.47449 -1.15064,0.66038 -2.24685,2.15153 -2.70443,3.6788 -0.42321,1.41256 -1.57845,3.32829 -2.5672,4.25717 -0.98875,0.92889 -1.79773,2.41309 -1.79773,3.29824 0,0.88515 -0.75471,2.20301 -1.67712,2.92858 -0.92242,0.72558 -2.05675,2.4695 -2.52073,3.87538 -0.46399,1.40589 -1.63785,3.30231 -2.6086,4.21427 -0.97074,0.91197 -1.76498,2.35585 -1.76498,3.20862 0,0.85278 -0.64286,2.13228 -1.42857,2.84334 -0.78572,0.71106 -1.42857,1.99678 -1.42857,2.85714 0,0.86037 -0.66107,2.16256 -1.46903,2.89376 -0.96204,0.87064 -1.3358,1.8603 -1.08299,2.8676 0.25022,0.99696 -0.11383,1.99053 -1.03469,2.8239 -0.78141,0.70716 -2.0936,3.56478 -2.91597,6.35025 -0.82238,2.78547 -2.29061,6.11848 -3.26275,7.40669 -1.34018,1.7759 -1.65706,2.84515 -1.31064,4.42239 0.52641,2.39676 -0.50033,4.74507 -2.32834,5.32526 -0.97315,0.30887 -1.5664,2.08249 -2.58455,7.72695 -0.72681,4.02933 -2.545,12.3082 -4.04041,18.39749 -4.00293,16.29977 -4.43543,21.90369 -4.43777,57.5 -0.002,32.93973 0.58476,42.84806 3.04846,51.46317 0.78027,2.72847 1.41868,6.44532 1.41868,8.25966 0,2.32236 0.46755,3.8932 1.57958,5.30691 1.18942,1.51211 1.58639,2.99147 1.60714,5.98919 0.018,2.60558 0.45945,4.59126 1.27756,5.74715 0.6875,0.97133 1.25,2.84921 1.25,4.17305 0,1.32541 0.64193,3.22305 1.42857,4.22311 0.78572,0.99887 1.42858,2.57914 1.42858,3.5117 0,0.93257 0.9665,3.02979 2.14778,4.6605 2.1079,2.90987 5.70936,12.8177 5.70936,15.70677 0,0.80711 0.80357,2.09956 1.78571,2.87212 1.03741,0.81602 1.78572,2.13863 1.78572,3.15619 0,1.21109 0.55101,1.96104 1.78571,2.43048 1.26062,0.47929 1.78572,1.2147 1.78572,2.50095 0,1.02106 1.72699,4.40153 3.92857,7.68989 2.16071,3.22733 3.92857,6.47116 3.92857,7.2085 0,0.73735 0.96428,2.4389 2.14286,3.78122 1.17857,1.34232 2.14285,2.91964 2.14285,3.50517 0,0.58553 1.89281,3.09922 4.20624,5.58598 2.31481,2.48825 4.41835,5.48713 4.67794,6.66903 0.27707,1.26149 1.15924,2.4609 2.138,2.90685 0.91646,0.41757 4.07828,3.75662 7.02625,7.4201 5.45354,6.77717 28.95141,30.313 39.60971,39.67369 3.2287,2.83561 7.46895,5.96572 9.42278,6.95581 1.95384,0.99008 4.57363,3.07089 5.82175,4.62402 1.25075,1.55638 3.99406,3.6677 6.1119,4.70386 2.11342,1.034 3.84258,2.17456 3.84258,2.53458 0,0.36002 2.86822,2.09509 6.37383,3.85571 3.50561,1.76063 6.80025,3.78645 7.32143,4.50185 0.52118,0.71538 1.75116,1.35282 2.73331,1.41651 0.98214,0.0637 2.31938,0.77324 2.97163,1.57676 0.65226,0.80352 1.63145,1.46095 2.17596,1.46095 0.54452,0 2.74299,1.12187 4.88551,2.49305 2.1425,1.37117 5.1263,2.70204 6.63065,2.95748 1.50435,0.25545 3.10846,1.06215 3.56468,1.79267 0.45622,0.73053 1.52865,1.32823 2.38318,1.32823 0.85453,0 4.07185,1.09271 7.14961,2.42825 7.45598,3.2354 20.81748,7.57766 23.30696,7.57438 1.2162,-0.001 2.74565,0.74627 3.91252,1.91314 1.44533,1.44533 2.53363,1.87979 4.43183,1.76925 1.38936,-0.0809 3.78312,0.50056 5.34564,1.29851 1.55628,0.79477 4.14011,1.44504 5.74183,1.44504 1.60172,0 4.17315,0.64286 5.71428,1.42857 1.92898,0.98345 4.21227,1.42857 7.328,1.42857 3.91015,0 4.7511,0.24296 6.18087,1.78572 1.5533,1.67603 2.09492,1.78571 8.81807,1.78571 3.93971,0 9.52786,0.47211 12.41809,1.04913 9.68932,1.93443 10.1399,1.94895 34.18355,1.10141 z"
       id="path872"
       inkscape:connector-curvature="0"
       transform="scale(0.26458333)" />
    <path
       style="fill:#8cfffb;fill-opacity:1;stroke:#8cfffb;stroke-width:0.71541053;stroke-miterlimit:4;stroke-dasharray:none;stroke-opacity:1"
       d="m 427.51041,598.76343 c -12.55146,-0.89531 -22.54918,-2.55256 -36.47465,-6.04617 -22.2335,-5.57791 -47.52035,-14.36483 -61.3825,-21.32978 -4.125,-2.07258 -8.625,-4.19391 -10,-4.71409 -1.375,-0.52016 -3.78571,-1.81528 -5.35714,-2.87804 -1.57143,-1.06276 -7.83929,-4.93675 -13.92857,-8.60886 -31.18134,-18.80374 -62.46384,-48.22596 -84.97184,-79.91882 -3.48755,-4.91072 -9.62562,-14.875 -13.64016,-22.14286 -4.01454,-7.26786 -7.52971,-13.375 -7.8115,-13.57143 -0.28179,-0.19643 -0.91964,-1.64286 -1.41746,-3.21429 -0.49781,-1.57142 -2.61359,-6.875 -4.70171,-11.78571 -4.69284,-11.03629 -10.50695,-29.68666 -12.8037,-41.07143 -4.36793,-21.6514 -6.11041,-48.2072 -4.79233,-73.03613 1.04603,-19.70438 2.27586,-29.35164 5.52209,-43.31761 4.30072,-18.50262 7.23518,-27.26173 14.9812,-44.71769 7.26437,-16.37053 8.98062,-19.88286 11.51791,-23.57143 1.21607,-1.76785 3.09836,-4.97104 4.18286,-7.11819 1.08451,-2.14715 2.84228,-5.04001 3.90616,-6.42857 1.06388,-1.38857 4.63945,-6.21635 7.94569,-10.72841 3.30625,-4.51206 9.09145,-11.90491 12.85601,-16.42857 7.51554,-9.03099 26.51679,-28.0998 34.94106,-35.06531 18.40124,-15.21482 39.16856,-28.927482 57.39349,-37.896917 4.70483,-2.315491 9.01346,-4.59111 9.57474,-5.056933 0.99347,-0.824506 10.57783,-4.502262 28.74606,-11.030572 15.57601,-5.596862 36.57227,-10.968155 50,-12.791076 14.70606,-1.996463 82.9935,-1.922331 96.78572,0.10507 38.7118,5.690483 90.29028,26.41907 124.56807,50.061968 25.27974,17.43655 48.61209,39.91589 66.4411,64.01207 26.66707,36.04097 45.63319,84.58064 50.1568,128.36544 1.37302,13.28966 1.19513,47.99775 -0.30662,59.8283 -4.94741,38.97472 -19.83461,80.01785 -39.93819,110.10722 -20.54711,30.75322 -49.10621,59.31479 -79.84974,79.85666 -22.35439,14.9365 -49.48222,28.68601 -70,35.47889 -32.33392,10.70489 -49.07452,13.62096 -84.64285,14.74408 -23.92015,0.75532 -35.9608,0.7323 -47.5,-0.0908 z m 17.67857,-1.87324 c -1.47322,-0.1541 -3.88393,-0.1541 -5.35714,0 -1.47322,0.1541 -0.26786,0.28018 2.67857,0.28018 2.94643,0 4.15178,-0.12608 2.67857,-0.28018 z m 37.85714,-1.40062 c -0.6875,-0.17965 -1.8125,-0.17965 -2.5,0 -0.6875,0.17967 -0.125,0.32667 1.25,0.32667 1.375,0 1.9375,-0.147 1.25,-0.32667 z m -58.21428,-0.69496 c -0.49108,-0.19815 -1.29465,-0.19815 -1.78572,0 -0.49107,0.19815 -0.0893,0.36028 0.89286,0.36028 0.98214,0 1.38393,-0.16213 0.89286,-0.36028 z m -6.40703,-0.76318 c -1.65778,-0.1498 -4.55064,-0.15159 -6.42857,-0.004 -1.87792,0.14763 -0.52155,0.2702 3.01417,0.27237 3.53571,0.002 5.0722,-0.11861 3.4144,-0.26841 z m -12.34298,-1.97805 c -0.48906,-0.58929 -1.25163,-1.06121 -1.6946,-1.04871 -0.44297,0.0125 -0.18146,0.49464 0.58113,1.07142 1.78119,1.34723 2.24261,1.33782 1.11347,-0.0227 z m 117.08334,-1.52009 c 0.56246,-0.50199 -3.87019,-0.12284 -5.65476,0.48368 -1.20426,0.4093 -0.6228,0.4726 1.78571,0.19442 1.96429,-0.22686 3.70536,-0.53201 3.86905,-0.6781 z m -121.19048,-0.0554 c -0.88393,-0.17026 -2.33036,-0.17026 -3.21428,0 -0.88393,0.17025 -0.16072,0.30955 1.60714,0.30955 1.76786,0 2.49107,-0.1393 1.60714,-0.30955 z m 130.81118,-2.42036 3.65311,-0.44583 -3.69898,-0.10058 c -2.51861,-0.0685 -4.05716,0.25761 -4.82143,1.02188 -1.47964,1.47965 -1.44557,2.17778 0.0459,0.94 0.64258,-0.5333 2.81222,-1.17025 4.82143,-1.41547 z m 8.67201,-2.65188 c -0.21992,-0.21993 -0.79628,-4.6e-4 -1.28081,0.4877 -0.70018,0.70544 -0.61814,0.78748 0.39986,0.39985 0.70444,-0.26823 1.10087,-0.66763 0.88095,-0.88755 z m 4.62396,-1.20938 c 1.375,-0.52951 2.01785,-0.9727 1.42857,-0.98487 -0.58929,-0.0122 -2.03572,0.41941 -3.21429,0.95907 -2.75861,1.26315 -1.4755,1.28168 1.78572,0.0258 z M 371.08183,582.7677 c -0.48906,-0.58929 -1.23271,-1.07143 -1.65255,-1.07143 -0.41984,0 -0.13941,0.47192 0.62318,1.04871 1.79176,1.35522 2.14166,1.36294 1.02937,0.0227 z m 179.80656,-0.0744 c -0.23735,-0.23735 -0.85343,-0.26272 -1.36905,-0.0564 -0.56981,0.22802 -0.40056,0.39727 0.43155,0.43154 0.75297,0.031 1.17485,-0.1378 0.9375,-0.37515 z m 2.85714,-0.71429 c -0.23735,-0.23735 -0.85343,-0.26272 -1.36905,-0.0563 -0.56981,0.22801 -0.40056,0.39727 0.43155,0.43154 0.75297,0.031 1.17485,-0.13781 0.9375,-0.37516 z m 2.85714,-0.71428 c -0.23735,-0.23735 -0.85343,-0.26272 -1.36905,-0.0564 -0.56981,0.22801 -0.40056,0.39727 0.43155,0.43154 0.75297,0.031 1.17485,-0.1378 0.9375,-0.37515 z m 5.71429,-1.42857 c -0.23735,-0.23735 -0.85343,-0.26273 -1.36905,-0.0564 -0.56981,0.22801 -0.40056,0.39727 0.43155,0.43154 0.75297,0.031 1.17485,-0.13781 0.9375,-0.37516 z m -206.23513,-1.64663 c -0.58928,-0.33339 -1.875,-0.80257 -2.85714,-1.04262 -1.48846,-0.36381 -1.42901,-0.26466 0.35714,0.59566 2.2891,1.10256 4.29165,1.46059 2.5,0.44696 z m 216.03026,-0.71235 c 0.22016,-0.35622 -0.24301,-0.47945 -1.02927,-0.27384 -1.66785,0.43615 -1.87868,0.92151 -0.40028,0.92151 0.5661,0 1.2094,-0.29145 1.42955,-0.64767 z m 3.61505,-4.23083 c -0.2196,-0.21961 -1.11356,0.34483 -1.98658,1.25429 l -1.5873,1.65357 1.98658,-1.25429 c 1.09262,-0.68986 1.8069,-1.43397 1.5873,-1.65357 z m -235.71673,-1.21872 c -1.17858,-0.53967 -2.63393,-0.9957 -3.23412,-1.01342 -0.60019,-0.0177 -1.64168,-0.67508 -2.31443,-1.46079 -0.67275,-0.78571 -1.78883,-1.42737 -2.48018,-1.4259 -2.61234,0.006 6.70783,4.79944 9.4573,4.86442 0.39285,0.009 -0.25,-0.42466 -1.42857,-0.96431 z m 238.92857,0.38293 c 0.58928,-0.38083 0.75,-0.6924 0.35714,-0.6924 -0.39286,0 -1.19643,0.31157 -1.78571,0.6924 -0.58929,0.38083 -0.75,0.69241 -0.35715,0.69241 0.39286,0 1.19643,-0.31158 1.78572,-0.69241 z m -253.92857,-6.88638 c -0.78572,-0.61966 -2.58224,-1.65978 -3.99227,-2.31138 -1.41003,-0.65159 -3.12048,-1.74152 -3.80102,-2.42205 -0.68053,-0.68053 -1.93758,-1.20004 -2.79345,-1.15447 -1.44779,0.0771 -1.45667,0.10708 -0.12755,0.43088 0.78571,0.19142 1.91098,0.77432 2.50059,1.29535 1.03625,0.91572 8.55992,5.16888 9.28512,5.24892 0.19643,0.0216 -0.28571,-0.46758 -1.07142,-1.08725 z m -13.6393,-7.47534 c -0.74839,-0.82751 -2.55325,-2.11323 -4.01082,-2.85714 -4.13522,-2.11054 -4.18986,-1.57511 -0.0798,0.78211 2.03426,1.16671 3.90145,2.4494 4.1493,2.85045 0.24786,0.40104 0.64221,0.72916 0.87634,0.72916 0.23414,0 -0.18662,-0.67706 -0.93501,-1.50458 z m -15.64642,-9.92399 c -1.17857,-0.78054 -2.46428,-1.41959 -2.85714,-1.42011 -0.88669,-10e-4 3.3002,2.72622 4.28571,2.79176 0.39286,0.0261 -0.25,-0.59112 -1.42857,-1.37165 z m -9.81093,-7.51933 c -1.46745,-1.36437 -3.01923,-2.48067 -3.44839,-2.48067 -0.71665,0 4.94763,4.8443 5.75932,4.92558 0.19643,0.0196 -0.84349,-1.08054 -2.31093,-2.44491 z m 358.11633,-5.87353 c 0.88848,-1.1329 0.86322,-1.15816 -0.26968,-0.26968 -0.6875,0.53917 -1.25,1.10167 -1.25,1.25 0,0.58788 0.58656,0.2095 1.51968,-0.98032 z m -373.66254,-5.40208 c 0,-0.12293 -1.04464,-1.16757 -2.32143,-2.32143 l -2.32143,-2.09792 2.09792,2.32143 c 1.95556,2.1639 2.54494,2.64975 2.54494,2.09792 z m -38.62528,-39.59792 c -1.63523,-2.16746 -5.20853,-5.89286 -5.65226,-5.89286 -0.23423,0 1.03418,1.60489 2.81869,3.56641 3.23793,3.55912 4.61905,4.69306 2.83357,2.32645 z m 463.71639,-7.14286 c 0.88848,-1.1329 0.86322,-1.15816 -0.26968,-0.26968 -0.6875,0.53918 -1.25,1.10168 -1.25,1.25 0,0.58788 0.58656,0.20951 1.51968,-0.98032 z m 2.40889,-3.03571 c 0.71106,-0.78571 1.13213,-1.42857 0.9357,-1.42857 -0.19643,0 -0.93892,0.64286 -1.64999,1.42857 -0.71106,0.78571 -1.13212,1.42857 -0.9357,1.42857 0.19643,0 0.93893,-0.64286 1.64999,-1.42857 z m -475.53118,-2.09819 c -0.54731,-0.78139 -1.9374,-2.15302 -3.0891,-3.04806 -1.85631,-1.44262 -1.78995,-1.26885 0.58456,1.53088 1.47322,1.73702 2.70395,3.50216 2.73497,3.92251 0.0315,0.4268 0.21277,0.37815 0.41053,-0.11017 0.19478,-0.48095 -0.0936,-1.51378 -0.64096,-2.29516 z m 482.2332,-8.25895 c 0.78023,-0.97355 0.52087,-0.87701 -0.81427,0.30308 -1.07755,0.95241 -1.94941,2.23812 -1.93746,2.85714 0.0164,0.85188 0.2144,0.7782 0.81427,-0.30308 0.43591,-0.78571 1.30776,-2.07143 1.93746,-2.85714 z m -490.23912,-2.43362 c -0.62835,-1.21508 -1.44082,-2.20924 -1.8055,-2.20924 -0.36468,0 0.0454,1.08634 0.9112,2.41409 1.92005,2.94435 2.45898,2.8209 0.8943,-0.20485 z m 499.13744,-11.31638 c 0.30547,-0.49107 0.40049,-0.89286 0.21115,-0.89286 -0.50336,0 -5.45435,8.04615 -5.45435,8.8642 0,0.38204 1.05475,-1.05433 2.3439,-3.19194 1.28914,-2.1376 2.59382,-4.28833 2.8993,-4.7794 z m -504.82938,1.6394 c -2.56481,-4.3765 -3.06216,-4.15265 -0.59431,0.26748 1.07908,1.93272 2.08232,3.39367 2.22943,3.24655 0.14712,-0.14711 -0.58869,-1.72842 -1.63512,-3.51403 z m -6.00778,-11.98337 c -0.53005,-0.53005 -0.62301,-0.25117 -0.31232,0.93694 0.25258,0.96586 0.57636,1.28964 0.75468,0.75468 0.17178,-0.51532 -0.0273,-1.27655 -0.44236,-1.69162 z m -3.24266,-4.36541 c -0.24022,-0.95711 -0.98402,-1.95019 -1.65288,-2.20686 -1.14323,-0.4387 -1.1436,-0.38653 -0.006,0.87032 0.66545,0.73533 1.20993,1.92774 1.20993,2.64978 0,0.72204 0.19931,1.11349 0.44292,0.86988 0.24361,-0.24361 0.24639,-1.22601 0.006,-2.18312 z m 524.10917,-4.43487 c 0.24392,-0.63565 0.12417,-0.92237 -0.28073,-0.67212 -0.38835,0.24001 -0.7061,0.73885 -0.7061,1.10852 0,1.02745 0.51198,0.80105 0.98683,-0.4364 z m -529.56164,-7.9717 c -0.77829,-1.21377 -0.79845,-1.21222 -0.4077,0.0315 0.22609,0.71963 0.43645,1.68392 0.46747,2.14286 0.0407,0.60226 0.15414,0.59349 0.40769,-0.0315 0.19322,-0.47627 -0.0171,-1.44056 -0.46746,-2.14286 z m 534.71836,-5.0143 c -0.34082,-0.34083 -2.58049,5.33209 -2.53872,6.43042 0.0184,0.48312 0.65346,-0.70974 1.4113,-2.65079 0.75783,-1.94105 1.26517,-3.64188 1.12742,-3.77963 z m -536.05636,1.46953 c -0.84203,-1.448 -1.04537,-0.98453 -0.3561,0.81167 0.24497,0.63836 0.59586,1.01019 0.77976,0.82628 0.18391,-0.1839 -0.007,-0.92098 -0.42366,-1.63795 z m -2.23005,-4.51785 c -0.4205,-0.78572 -0.92526,-1.42858 -1.12169,-1.42858 -0.19643,0 -0.0131,0.64286 0.4074,1.42858 0.4205,0.78571 0.92527,1.42857 1.12169,1.42857 0.19643,0 0.0131,-0.64286 -0.4074,-1.42857 z m 542.79726,-6.07143 c 0,-0.39286 -0.61591,0.41071 -1.36869,1.78571 -0.75278,1.375 -1.36869,2.82143 -1.36869,3.21429 0,0.39285 0.61591,-0.41072 1.36869,-1.78572 0.75278,-1.375 1.36869,-2.82143 1.36869,-3.21428 z m -545.16647,0.9375 c -0.22801,-0.56981 -0.39727,-0.40056 -0.43154,0.43155 -0.031,0.75297 0.1378,1.17485 0.37515,0.9375 0.23735,-0.23735 0.26273,-0.85343 0.0564,-1.36905 z m -1.50313,-3.27594 c -1.22996,-1.17806 -1.24518,-1.16284 -0.34167,0.34167 0.52011,0.86606 1.09939,1.4209 1.28731,1.23299 0.18791,-0.18792 -0.23762,-0.89651 -0.94564,-1.57466 z m 549.56131,-6.49357 c -0.0519,-0.92932 -2.06681,3.15978 -2.06427,4.18915 10e-4,0.58929 0.47221,-0.0101 1.04611,-1.33201 0.57391,-1.32189 1.03208,-2.6076 1.01816,-2.85714 z m -550.9302,1.15344 c -0.19815,-0.49108 -0.36028,-0.0893 -0.36028,0.89285 0,0.98215 0.16213,1.38393 0.36028,0.89286 0.19815,-0.49107 0.19815,-1.29464 0,-1.78571 z m -1.09871,-2.86905 c -0.70544,-0.70019 -0.78748,-0.61815 -0.39985,0.39985 0.26823,0.70445 0.66763,1.10087 0.88755,0.88095 0.21992,-0.21992 4.6e-4,-0.79628 -0.4877,-1.2808 z m -1.75843,-9.27381 c -0.19815,-0.49107 -0.36028,-0.0893 -0.36028,0.89286 0,0.98214 0.16213,1.38392 0.36028,0.89285 0.19815,-0.49107 0.19815,-1.29464 0,-1.78571 z m 558.33258,-6.60714 c 0.29445,-1.84168 0.23945,-2.34942 -0.15473,-1.42858 -0.33635,0.78572 -0.80657,2.875 -1.04494,4.64286 -0.52293,3.87839 0.5068,1.11942 1.19967,-3.21428 z m -561.1576,-2.67025 c -0.17085,-0.8885 -0.31712,-0.32975 -0.32505,1.24167 -0.008,1.57143 0.13186,2.2984 0.31064,1.61548 0.17878,-0.68293 0.18527,-1.96864 0.0144,-2.85715 z m -0.74641,-4.29404 c -0.19815,-0.49107 -0.36028,-0.0893 -0.36028,0.89286 0,0.98214 0.16213,1.38393 0.36028,0.89285 0.19815,-0.49107 0.19815,-1.29464 0,-1.78571 z m 567.90537,-61.76979 c -0.15463,-1.48197 -0.28373,-0.4445 -0.2869,2.3055 -0.003,2.75 0.12334,3.96253 0.28114,2.6945 0.15779,-1.26802 0.16038,-3.51802 0.006,-5 z m -567.1762,-50.32842 c -0.22802,-0.56981 -0.39728,-0.40056 -0.43155,0.43155 -0.031,0.75297 0.1378,1.17485 0.37515,0.9375 0.23736,-0.23735 0.26273,-0.85343 0.0564,-1.36905 z m 0.71428,-2.85715 c -0.22802,-0.5698 -0.39727,-0.40055 -0.43155,0.43155 -0.031,0.75297 0.13781,1.17485 0.37516,0.9375 0.23735,-0.23735 0.26273,-0.85343 0.0564,-1.36905 z m 560.16141,-4.08685 c -0.48302,-1.61221 -1.00972,-2.79979 -1.17044,-2.63908 -0.16071,0.16072 0.103,1.61129 0.58603,3.2235 0.48303,1.6122 1.00973,2.79979 1.17044,2.63908 0.16072,-0.16072 -0.103,-1.61129 -0.58603,-3.2235 z m -559.44712,1.22971 c -0.22802,-0.56981 -0.39728,-0.40056 -0.43155,0.43155 -0.031,0.75297 0.1378,1.17485 0.37516,0.9375 0.23735,-0.23735 0.26272,-0.85343 0.0564,-1.36905 z m 0.6994,-3.61607 c -0.19815,-0.49107 -0.36027,-0.0893 -0.36027,0.89285 0,0.98215 0.16212,1.38393 0.36027,0.89286 0.19815,-0.49107 0.19815,-1.29464 0,-1.78571 z m 0.71429,-3.57143 c -0.19815,-0.49107 -0.36028,-0.0893 -0.36028,0.89286 0,0.98214 0.16213,1.38392 0.36028,0.89285 0.19815,-0.49107 0.19815,-1.29464 0,-1.78571 z m 5.81756,-14.48319 c -0.21992,-0.21992 -0.61932,0.17651 -0.88755,0.88095 -0.38764,1.018 -0.30559,1.10005 0.39985,0.39986 0.48816,-0.48453 0.70762,-1.06089 0.4877,-1.28081 z m 3.02231,-9.67731 c 0.81666,-1.60078 1.38569,-3.17506 1.26452,-3.4984 -0.12117,-0.32334 -0.92304,0.98638 -1.78193,2.9105 -1.8914,4.23721 -1.54508,4.63071 0.51741,0.5879 z m 536.843,-2.56207 c -0.60431,-1.11509 -1.1116,-1.80148 -1.12733,-1.52532 -0.0484,0.84905 1.6134,4.16541 1.92904,3.84977 0.16336,-0.16336 -0.19741,-1.20936 -0.80171,-2.32445 z M 196.72656,218.53144 c -0.18791,-0.18791 -0.7672,0.36693 -1.2873,1.233 -0.90352,1.5045 -0.8883,1.51972 0.34166,0.34166 0.70802,-0.67815 1.13356,-1.38674 0.94564,-1.57466 z m 2.66151,-5.87583 c 0.24022,-0.9571 0.23744,-1.9395 -0.006,-2.18312 -0.24364,-0.2436 -0.44295,0.14784 -0.44295,0.86988 0,0.72204 -0.54448,1.91445 -1.20996,2.64979 -1.13743,1.25685 -1.13706,1.30901 0.006,0.87031 0.66886,-0.25666 1.41266,-1.24975 1.65288,-2.20686 z m 2.85714,-5.71428 c 0.24022,-0.95711 0.23744,-1.93951 -0.006,-2.18312 -0.24363,-0.24361 -0.44295,0.14783 -0.44295,0.86988 0,0.72204 -0.54448,1.91445 -1.20995,2.64978 -1.13743,1.25685 -1.13706,1.30902 0.006,0.87032 0.66886,-0.25667 1.41266,-1.24975 1.65288,-2.20686 z m 3.20005,-5.39031 c 1.15451,-2.15721 0.46554,-2.03887 -1.38013,0.23704 -1.17186,1.44503 -1.32346,1.91745 -0.51587,1.60755 0.62903,-0.24138 1.48223,-1.07145 1.896,-1.84459 z m 5.55372,-10.14406 c -0.0797,-1.43921 -0.0962,-1.4418 -0.43089,-0.0679 -0.19141,0.78571 -0.87734,2.07143 -1.52428,2.85714 -1.16661,1.41685 -1.16307,1.4174 0.43088,0.0679 0.88393,-0.74839 1.56986,-2.0341 1.52429,-2.85714 z m 3.01771,-4.14165 c 1.1545,-2.15721 0.46554,-2.03887 -1.38013,0.23704 -1.17186,1.44502 -1.32346,1.91745 -0.51588,1.60755 0.62904,-0.24139 1.48224,-1.07145 1.89601,-1.84459 z m 493.49372,0.14521 c -0.4205,-0.78571 -0.92527,-1.42857 -1.1217,-1.42857 -0.19642,0 -0.0131,0.64286 0.40741,1.42857 0.4205,0.78572 0.92527,1.42857 1.12169,1.42857 0.19643,0 0.0131,-0.64285 -0.4074,-1.42857 z m -2.2742,-3.93159 c -0.44825,-0.9838 -0.94955,-1.65419 -1.11399,-1.48974 -0.33361,0.3336 1.11462,3.27847 1.61229,3.27847 0.17418,0 -0.0501,-0.80492 -0.4983,-1.78873 z m -484.32117,-5.88839 c 1.84187,-2.66002 2.68952,-4.44994 1.26918,-2.68002 -0.63053,0.78572 -2.17507,2.52427 -3.43231,3.86347 -1.68001,1.78951 -1.87667,2.21587 -0.74195,1.6086 0.84918,-0.45447 2.15646,-1.71089 2.90508,-2.79205 z m 479.45251,-1.11781 c 0,-0.12293 -1.04464,-1.16757 -2.32143,-2.32143 l -2.32143,-2.09792 2.09792,2.32143 c 1.95556,2.1639 2.54494,2.64975 2.54494,2.09792 z m -4.28571,-5.02293 c 0,-0.13554 -0.72322,-0.85876 -1.60715,-1.60714 l -1.60714,-1.36071 1.36071,1.60714 c 1.27873,1.51032 1.85358,1.93232 1.85358,1.36071 z m -13.6324,-15.64642 c -6.27832,-7.23502 -6.3676,-7.32987 -6.3676,-6.76474 0,0.62165 9.92508,11.94331 10.47005,11.94331 0.21525,0 -1.63085,-2.33036 -4.10245,-5.17857 z m -23.90332,-25.40612 c -2.79961,-2.41225 -10.41396,-8.00003 -10.00932,-7.34532 0.56266,0.91039 9.67524,7.93001 10.29441,7.93001 0.21642,0 0.0881,-0.26311 -0.28509,-0.58469 z m -11.03571,-8.23318 c 0,-0.13554 -0.72322,-0.85875 -1.60715,-1.60714 l -1.60714,-1.3607 1.36071,1.60714 c 1.27873,1.51032 1.85358,1.93231 1.85358,1.3607 z m -361.59665,-9.47756 2.66807,-2.58114 -3.21428,2.36178 c -1.76786,1.29898 -3.34822,2.46049 -3.51191,2.58114 -0.16368,0.12065 0.0821,0.21936 0.54621,0.21936 0.4641,0 2.04446,-1.16151 3.51191,-2.58114 z m 346.59665,-1.2131 c 0,-0.12255 -1.04465,-0.97702 -2.32143,-1.89883 l -2.32143,-1.67601 1.73165,1.89883 c 1.47914,1.62194 2.91121,2.44639 2.91121,1.67601 z m -337.19395,-5.82219 c 1.11146,-0.57476 2.23834,-1.61184 2.50419,-2.30463 0.40685,-1.06023 0.22269,-1.02332 -1.16344,0.23318 -0.90575,0.82103 -2.28966,1.84834 -3.07538,2.2829 -2.13938,1.18325 -0.59941,0.99552 1.73463,-0.21145 z m 326.47966,-2.80142 c 0,-0.15124 -0.88393,-0.81318 -1.96428,-1.47096 l -1.96429,-1.19597 1.68627,1.47096 c 1.64552,1.43542 2.2423,1.75372 2.2423,1.19597 z m -318.86071,-2.04643 c 1.34954,-1.593952 1.34898,-1.597489 -0.0678,-0.43089 -0.78572,0.64695 -2.07143,1.33288 -2.85715,1.52429 -1.37393,0.33472 -1.37134,0.35119 0.0679,0.43088 0.82304,0.0456 2.10876,-0.64035 2.85714,-1.52428 z m 313.86071,-1.747189 c -0.58928,-0.211423 -2.4375,-0.971545 -4.10714,-1.689159 -1.66964,-0.717614 -3.03572,-1.169791 -3.03572,-1.004838 0,0.641485 5.43435,3.126706 6.78572,3.103225 0.99926,-0.01736 1.10658,-0.140344 0.35714,-0.409228 z m -306.584,-2.89567 c 1.10548,-1.080357 1.35162,-1.445682 0.54698,-0.811835 -0.80464,0.633848 -2.10584,1.508003 -2.89155,1.942565 -0.78572,0.434563 -1.03186,0.79989 -0.54699,0.811835 0.48488,0.01195 1.78607,-0.862207 2.89156,-1.942565 z m 6.89012,-3.443877 c 1.5309,-1.530895 1.42637,-2.225594 -0.12755,-0.847712 -0.6875,0.609616 -1.89286,1.265004 -2.67857,1.456419 -1.32912,0.323798 -1.32024,0.353794 0.12755,0.430884 0.85587,0.04557 2.06123,-0.422244 2.67857,-1.039591 z m 5.71429,-2.857143 c 1.5309,-1.530895 1.42637,-2.225594 -0.12755,-0.847712 -0.6875,0.609616 -1.89286,1.265005 -2.67857,1.456419 -1.32913,0.323798 -1.32025,0.353794 0.12755,0.430884 0.85587,0.04557 2.06122,-0.422244 2.67857,-1.039591 z m 5.93104,-3.163265 c 0.67275,-0.785715 1.87496,-1.433494 2.67158,-1.43951 0.79662,-0.006 1.93054,-0.326995 2.51983,-0.713287 0.75492,-0.494872 0.33291,-0.568811 -1.42857,-0.250296 -1.375,0.248629 -3.14286,1.019663 -3.92858,1.713408 -0.78571,0.693746 -2.07142,1.416873 -2.85714,1.606948 -1.28705,0.311357 -1.26867,0.3538 0.18557,0.42845 0.88777,0.04557 2.16456,-0.559999 2.83731,-1.345713 z m 14.47712,-6.555837 c 0.90903,-0.58956 0.89324,-0.6403 -0.10422,-0.334758 -0.64661,0.19807 -2.57518,0.758669 -4.28571,1.245774 -1.71054,0.487106 -3.41794,1.155401 -3.79422,1.485101 -0.87286,0.764803 6.75281,-1.467805 8.18415,-2.396117 z m 15.29792,-5.561637 c 1.80043,-0.771753 3.27351,-1.563901 3.27351,-1.76033 0,-0.355335 -6.47313,2.255697 -7.06869,2.851262 -0.6325,0.632499 0.60334,0.277255 3.79518,-1.090932 z m 12.95842,-3.931238 c 0.76258,-0.576792 1.04902,-1.058935 0.63652,-1.071429 -0.4125,-0.01249 -1.05536,0.267513 -1.42857,0.622237 -0.37322,0.354725 -1.32143,0.799582 -2.10715,0.988571 -1.39373,0.335238 -1.39271,0.345637 0.0421,0.426475 0.80884,0.04557 2.09455,-0.389062 2.85714,-0.965854 z m 171.02938,-2.798789 c 0,-0.151839 -0.94731,-0.415107 -2.10514,-0.58504 -1.15782,-0.169932 -1.94242,-0.0457 -1.74356,0.276072 0.35394,0.572686 3.8487,0.85324 3.8487,0.308968 z M 385.1741,66.264688 c -0.23735,-0.237351 -0.85343,-0.262727 -1.36905,-0.05639 -0.56981,0.228019 -0.40056,0.397274 0.43155,0.431548 0.75297,0.03101 1.17485,-0.137806 0.9375,-0.375157 z m 4.83631,-1.32837 c 2.75861,-1.263149 1.4755,-1.281685 -1.78572,-0.0258 -1.375,0.52951 -2.01786,0.972701 -1.42857,0.98487 0.58929,0.01217 2.03571,-0.419415 3.21429,-0.959074 z m 140.29762,0.859448 c -0.16369,-0.1024 -1.02084,-0.795075 -1.90477,-1.539276 -0.88392,-0.744202 -1.60714,-1.165522 -1.60714,-0.936266 0,0.719881 2.20849,2.661726 3.02722,2.661726 0.43027,0 0.64837,-0.08378 0.48469,-0.186184 z M 403.93898,62.38657 c 1.15278,-0.384647 0.39325,-0.4517 -2.14286,-0.18918 -2.16071,0.223661 -4.0625,0.523828 -4.22619,0.667037 -0.57227,0.500666 4.5993,0.112654 6.36905,-0.477857 z m 118.03571,0.265179 c -0.49107,-0.198151 -1.29464,-0.198151 -1.78571,0 -0.49107,0.198152 -0.0893,0.360276 0.89286,0.360276 0.98214,0 1.38392,-0.162124 0.89285,-0.360276 z"
       id="path874"
       inkscape:connector-curvature="0"
       transform="scale(0.26458333)" />
    <path
       style="fill:#8cfffb;fill-opacity:1;stroke:#8cfffb;stroke-width:0.71541053;stroke-miterlimit:4;stroke-dasharray:none;stroke-opacity:1"
       d="m 421.19275,598.43302 c -28.11805,-3.06575 -67.61299,-14.98716 -96.18234,-29.03233 -29.06723,-14.28992 -58.0914,-35.68407 -81.63488,-60.17426 -15.14139,-15.75026 -32.57498,-38.27955 -38.24863,-49.4284 -0.96813,-1.90241 -4.0287,-7.42612 -6.80127,-12.27491 -9.42987,-16.4914 -20.29435,-46.72904 -23.99037,-66.76919 -3.5629,-19.31836 -4.2867,-28.43995 -4.28945,-54.05769 -0.003,-30.78979 1.14369,-41.74581 6.77838,-64.74673 3.33743,-13.62342 6.4339,-22.82357 12.10585,-35.96857 8.75779,-20.2966 15.60944,-32.91107 24.82952,-45.71328 36.57615,-50.7865 83.77867,-87.681834 137.63451,-107.580525 23.66798,-8.744862 41.04368,-13.567552 59.42643,-16.494027 6.71739,-1.069387 13.38177,-1.234669 49.54705,-1.228803 47.08167,0.0076 47.65747,0.05675 71.42857,6.092246 35.6196,9.043841 77.61802,28.072322 104.56777,47.377149 24.4062,17.48282 47.86447,40.66124 65.08562,64.30917 18.52658,25.44054 34.66436,60.76816 42.7551,93.59622 4.56104,18.50638 6.11452,30.94313 6.64699,53.21429 0.64776,27.09333 -1.36909,47.32778 -6.90171,69.24249 -12.18398,48.26081 -32.72922,85.07491 -67.14615,120.31621 -27.10705,27.75632 -51.27462,44.94955 -89.41162,63.60896 -25.25346,12.35585 -54.16206,21.00785 -81.17244,24.29394 -20.18964,2.45628 -68.16596,3.25641 -85.02693,1.41804 z M 221.49521,476.8578 c -1.22996,-1.17806 -1.24518,-1.16284 -0.34167,0.34167 0.52011,0.86606 1.09939,1.4209 1.28731,1.23299 0.18791,-0.18792 -0.23762,-0.89651 -0.94564,-1.57466 z"
       id="path876"
       inkscape:connector-curvature="0"
       transform="scale(0.26458333)" />
    <path
       style="fill:#8cfffb;fill-opacity:1;stroke:#8cfffb;stroke-width:0.71541053;stroke-miterlimit:4;stroke-dasharray:none;stroke-opacity:1"
       d="m 421.59227,598.82604 c -27.80402,-3.19048 -69.52272,-15.73825 -96.22163,-28.94067 -26.93436,-13.31885 -52.12877,-31.32083 -74.7996,-53.446 -22.51494,-21.97305 -36.47784,-39.97199 -50.22525,-64.74313 -14.9429,-26.92524 -25.03544,-57.56505 -28.93956,-87.85715 -1.57646,-12.2318 -2.16999,-46.17717 -1.08656,-62.14285 1.69343,-24.95494 7.55462,-50.05015 16.83247,-72.06976 12.45833,-29.56802 21.73033,-44.91657 42.08164,-69.66046 30.01733,-36.4962 73.91939,-68.873383 114.97153,-84.789961 31.89322,-12.365513 56.06473,-18.629695 77.23367,-20.01553 17.13836,-1.121973 80.89416,-0.353864 89.64286,1.079986 17.59042,2.882951 43.85742,10.756626 64.65558,19.380866 47.74447,19.79789 81.48481,44.001609 114.01524,81.789139 30.0682,34.92738 53.32774,87.4484 59.66789,134.73258 1.81608,13.54412 1.81219,57.72758 -0.006,69.91028 -7.35546,49.28068 -25.92947,92.38859 -55.07746,127.82783 -23.18623,28.19101 -48.9154,50.34086 -79.6834,68.59844 -10.13467,6.01387 -31.72576,17.05532 -40.3547,20.63696 -22.61687,9.38765 -49.76729,16.27816 -73.7817,18.72508 -12.35885,1.2593 -70.23769,1.98115 -78.92459,0.98435 z"
       id="path878"
       inkscape:connector-curvature="0"
       transform="scale(0.26458333)" />
  </g>
</svg>
